<svg width="364" height="233" viewBox="0 0 364 233" fill="none" xmlns="http://www.w3.org/2000/svg">
<path d="M1.28 60.72L1.84 55.84C3.12 55.52 4.02667 55.12 4.56 54.64C5.14667 54.16 5.49333 53.4933 5.6 52.64C5.76 51.7333 5.84 50.6133 5.84 49.28V12.16C5.84 10.7733 5.70667 9.76 5.44 9.12C5.22667 8.48 4.74667 8.08 4 7.92C3.25333 7.70666 2.13333 7.65333 0.64 7.76L0.32 7.44L0.8 3.2C3.46667 2.88 6.13333 2.50666 8.8 2.08C11.52 1.65333 14.24 1.17333 16.96 0.639997L17.52 2.16C17.2533 2.90666 16.9867 4.26666 16.72 6.24C16.4533 8.16 16.2133 10.64 16 13.68C15.7867 16.72 15.6 20.2133 15.44 24.16C15.28 28.0533 15.1733 32.32 15.12 36.96C15.0667 41.6 15.04 46.48 15.04 51.6C15.04 52.88 15.2 53.8133 15.52 54.4C15.8933 54.9333 16.5333 55.2 17.44 55.2L20.08 55.04L20.32 55.52L19.44 60.24C18.0533 60.1867 16.5067 60.1333 14.8 60.08C13.0933 60.0267 11.6267 60 10.4 60C9.28 60 7.89333 60.0533 6.24 60.16C4.58667 60.32 2.93333 60.5067 1.28 60.72ZM26.6956 29.52L23.4156 27.84L23.1756 26.56C24.2956 25.44 25.2023 24.16 25.8956 22.72C26.589 21.28 26.9356 19.9733 26.9356 18.8C26.9356 17.52 26.5623 16.32 25.8156 15.2C25.069 14.08 24.109 13.2267 22.9356 12.64L22.8556 11.52C25.2023 8.85333 27.469 7.52 29.6556 7.52C31.2556 7.52 32.589 8.26667 33.6556 9.76C34.7756 11.2 35.3356 13.0133 35.3356 15.2C35.3356 17.3333 34.5623 19.68 33.0156 22.24C31.5223 24.8 29.4156 27.2267 26.6956 29.52ZM68.7631 60.96C66.4165 60.96 64.5498 60.4267 63.1631 59.36C61.8298 58.2933 61.0298 56.7733 60.7631 54.8L60.1231 54.56C59.1098 55.6267 58.0431 56.64 56.9231 57.6C55.8031 58.5067 54.7631 59.2533 53.8031 59.84C52.8431 60.3733 52.0165 60.64 51.3231 60.64C49.2431 60.64 47.3765 60.1333 45.7231 59.12C44.0698 58.1067 42.7631 56.72 41.8031 54.96C40.8431 53.2 40.3631 51.2267 40.3631 49.04C40.3631 47.3867 40.7898 45.9733 41.6431 44.8C42.5498 43.5733 43.6698 42.7733 45.0031 42.4L60.4431 38.8L60.5231 36.88C60.5231 34.5867 59.9098 32.8 58.6831 31.52C57.5098 30.24 55.8298 29.6 53.6431 29.6C52.1498 29.6 50.5498 29.9733 48.8431 30.72C47.1365 31.4133 45.6165 32.2933 44.2831 33.36L43.5631 33.04L42.2031 28.24C43.7498 27.3333 45.4831 26.4267 47.4031 25.52C49.3231 24.56 51.1365 23.76 52.8431 23.12C54.6031 22.48 55.9365 22.16 56.8431 22.16C59.9365 22.16 62.4698 22.64 64.4431 23.6C66.4165 24.56 67.8565 25.8667 68.7631 27.52C69.6698 29.12 70.1231 30.96 70.1231 33.04C70.1231 33.7333 70.0431 34.8 69.8831 36.24C69.7231 37.68 69.5365 39.2533 69.3231 40.96C69.1098 42.6667 68.9231 44.2933 68.7631 45.84C68.6031 47.3867 68.5231 48.6133 68.5231 49.52C68.5231 50.5333 68.7631 51.3333 69.2431 51.92C69.7765 52.5067 70.4965 52.8 71.4031 52.8C72.0965 52.8 72.7898 52.64 73.4831 52.32C74.2298 52 74.8165 51.7067 75.2431 51.44L76.4431 53.12C75.9098 54.0267 75.2165 55.0667 74.3631 56.24C73.5098 57.36 72.6031 58.3733 71.6431 59.28C70.6831 60.1333 69.7231 60.6933 68.7631 60.96ZM54.2831 53.04C55.0831 53.04 56.0165 52.8267 57.0831 52.4C58.2031 51.92 59.1898 51.36 60.0431 50.72L60.2831 43.12L51.7231 45.52C50.4431 45.8933 49.8031 46.7733 49.8031 48.16C49.8031 49.5467 50.2031 50.72 51.0031 51.68C51.8565 52.5867 52.9498 53.04 54.2831 53.04ZM94.555 79.36C91.7283 79.36 89.2483 78.88 87.115 77.92C85.035 77.0133 83.4083 75.7067 82.235 74C81.0617 72.3467 80.475 70.3733 80.475 68.08C81.115 67.3867 82.155 66.5067 83.595 65.44C85.0883 64.3733 86.715 63.3067 88.475 62.24V61.68C85.915 61.2533 83.9417 60.3467 82.555 58.96C81.1683 57.52 80.395 55.7067 80.235 53.52C81.195 52.56 82.2083 51.6267 83.275 50.72C84.395 49.8133 85.5683 48.96 86.795 48.16V46.56L92.235 48.16C91.0617 48.9067 90.1817 49.5733 89.595 50.16C89.0617 50.7467 88.795 51.3333 88.795 51.92C88.795 52.88 89.435 53.5733 90.715 54C92.0483 54.4267 93.7283 54.7467 95.755 54.96C97.835 55.1733 100.022 55.4133 102.315 55.68C104.608 55.9467 106.768 56.3733 108.795 56.96C110.822 57.5467 112.475 58.4267 113.755 59.6C115.088 60.7733 115.755 62.4 115.755 64.48C115.755 66.3467 115.168 68.16 113.995 69.92C112.822 71.7333 111.222 73.3333 109.195 74.72C107.222 76.16 104.955 77.28 102.395 78.08C99.8883 78.9333 97.275 79.36 94.555 79.36ZM97.595 73.44C99.355 73.44 100.928 73.1733 102.315 72.64C103.702 72.16 104.795 71.4667 105.595 70.56C106.448 69.6533 106.875 68.64 106.875 67.52C106.875 66.6667 106.528 65.9733 105.835 65.44C105.195 64.96 103.915 64.5067 101.995 64.08C100.075 63.6533 97.2217 63.2 93.435 62.72C92.475 63.5733 91.7283 64.5067 91.195 65.52C90.6617 66.5333 90.395 67.52 90.395 68.48C90.395 70.0267 91.0083 71.2267 92.235 72.08C93.515 72.9867 95.3017 73.44 97.595 73.44ZM97.355 44.56C99.275 44.56 100.742 43.8933 101.755 42.56C102.822 41.2267 103.355 39.3067 103.355 36.8C103.355 34.0267 102.742 31.8667 101.515 30.32C100.288 28.7733 98.6083 28 96.475 28C94.555 28 93.0883 28.6667 92.075 30C91.0617 31.3333 90.555 33.28 90.555 35.84C90.555 38.56 91.1417 40.6933 92.315 42.24C93.5417 43.7867 95.2217 44.56 97.355 44.56ZM95.915 49.84C92.875 49.84 90.2083 49.3067 87.915 48.24C85.6217 47.12 83.835 45.6 82.555 43.68C81.3283 41.7067 80.715 39.44 80.715 36.88C80.715 34.0533 81.435 31.52 82.875 29.28C84.315 27.04 86.2883 25.28 88.795 24C91.3017 22.72 94.1283 22.08 97.275 22.08C98.9817 22.08 100.475 22.2133 101.755 22.48C103.035 22.7467 104.288 22.88 105.515 22.88C106.582 22.7733 108.128 22.48 110.155 22C112.182 21.52 114.368 20.9333 116.715 20.24L117.195 20.56L116.155 26.72C115.142 26.8267 114.102 26.9333 113.035 27.04C111.968 27.0933 111.035 27.1467 110.235 27.2L109.915 27.68C112.048 29.92 113.115 32.56 113.115 35.6C113.115 38.32 112.368 40.7467 110.875 42.88C109.382 45.0133 107.328 46.72 104.715 48C102.155 49.2267 99.2217 49.84 95.915 49.84ZM137.426 60.96C133.692 60.96 130.466 60.2133 127.746 58.72C125.079 57.2267 122.999 55.0933 121.506 52.32C120.066 49.5467 119.346 46.2933 119.346 42.56C119.346 39.6267 119.826 36.9333 120.786 34.48C121.746 32.0267 123.079 29.8933 124.786 28.08C126.492 26.2133 128.492 24.7733 130.786 23.76C133.079 22.6933 135.559 22.16 138.226 22.16C147.186 22.16 151.666 26.6933 151.666 35.76C151.666 36.56 151.586 37.3867 151.426 38.24C151.319 39.0933 151.212 39.76 151.106 40.24L150.146 41.2H129.426C129.532 44.88 130.386 47.76 131.986 49.84C133.639 51.8667 135.932 52.9867 138.866 53.2C141.799 53.4133 145.239 52.6133 149.186 50.8L149.746 51.12L151.026 55.04C149.959 55.84 148.626 56.72 147.026 57.68C145.426 58.5867 143.772 59.36 142.066 60C140.359 60.64 138.812 60.96 137.426 60.96ZM129.426 36.8L140.386 36.16C141.026 36.1067 141.426 35.9733 141.586 35.76C141.799 35.4933 141.906 35.0133 141.906 34.32C141.906 32.4 141.479 30.9333 140.626 29.92C139.772 28.9067 138.519 28.4 136.866 28.4C134.786 28.4 133.079 29.12 131.746 30.56C130.466 31.9467 129.692 34.0267 129.426 36.8ZM179.739 55.68C181.072 55.4133 182.005 54.9333 182.539 54.24C183.125 53.4933 183.445 52.48 183.499 51.2L183.739 37.36C183.739 35.0133 183.312 33.28 182.459 32.16C181.605 30.9867 180.299 30.4 178.539 30.4C177.685 30.4 176.779 30.5867 175.819 30.96C174.912 31.28 174.085 31.68 173.339 32.16C172.592 32.64 171.979 33.0667 171.499 33.44C171.445 34.88 171.365 36.5067 171.259 38.32C171.152 40.1333 171.045 41.9467 170.939 43.76C170.885 45.52 170.832 47.0933 170.779 48.48C170.725 49.8667 170.699 50.8533 170.699 51.44C170.699 52.8267 170.885 53.7867 171.259 54.32C171.632 54.8 172.245 55.04 173.099 55.04C173.472 55.04 173.925 55.04 174.459 55.04C174.992 54.9867 175.259 54.96 175.259 54.96L175.419 55.28L174.619 60.24C174.619 60.24 174.139 60.2133 173.179 60.16C172.219 60.1067 171.072 60.0533 169.739 60C168.459 60 167.285 60 166.219 60C164.832 60 163.392 60.0267 161.899 60.08C160.459 60.1867 159.232 60.2667 158.219 60.32C157.259 60.4267 156.779 60.48 156.779 60.48L157.419 55.52C158.965 55.3067 160.032 54.88 160.619 54.24C161.259 53.6 161.579 52.5333 161.579 51.04V34.08C161.579 32.2667 161.285 31.0133 160.699 30.32C160.165 29.6267 159.152 29.28 157.659 29.28H156.619L156.299 28.88L156.699 24.72C159.152 24.3467 161.499 23.9733 163.739 23.6C165.979 23.1733 167.819 22.8267 169.259 22.56C170.699 22.24 171.419 22.08 171.419 22.08L172.059 22.88C172.059 22.88 171.925 23.4667 171.659 24.64C171.445 25.76 171.285 27.0133 171.179 28.4L171.499 28.72C172.139 28.1867 172.912 27.5467 173.819 26.8C174.779 26.0533 175.765 25.3333 176.779 24.64C177.845 23.9467 178.832 23.36 179.739 22.88C180.645 22.4 181.365 22.16 181.899 22.16C185.685 22.16 188.619 23.0667 190.699 24.88C192.832 26.6933 193.899 29.2267 193.899 32.48C193.899 33.28 193.819 34.5067 193.659 36.16C193.499 37.8133 193.312 39.6267 193.099 41.6C192.939 43.5733 192.779 45.44 192.619 47.2C192.512 48.96 192.459 50.3467 192.459 51.36C192.459 52.6933 192.645 53.68 193.019 54.32C193.392 54.9067 194.032 55.2 194.939 55.2C195.419 55.2 195.952 55.1733 196.539 55.12C197.125 55.0667 197.419 55.04 197.419 55.04L197.579 55.36L196.859 60.24C196.859 60.24 196.539 60.2133 195.899 60.16C195.312 60.16 194.565 60.1333 193.659 60.08C192.752 60.08 191.819 60.0533 190.859 60C189.899 60 189.019 60 188.219 60C187.419 60 186.512 60.0267 185.499 60.08C184.539 60.1867 183.579 60.2667 182.619 60.32C181.659 60.3733 180.859 60.4267 180.219 60.48C179.632 60.5867 179.339 60.64 179.339 60.64L179.739 55.68ZM218.821 60.96C215.194 60.96 212.047 60.2133 209.381 58.72C206.767 57.2267 204.741 55.12 203.301 52.4C201.914 49.6267 201.221 46.3467 201.221 42.56C201.221 38.56 202.047 35.04 203.701 32C205.354 28.96 207.647 26.56 210.581 24.8C213.514 23.04 216.874 22.16 220.661 22.16C222.687 22.16 224.447 22.2933 225.941 22.56C227.434 22.8267 228.607 23.0933 229.461 23.36C230.367 23.6267 230.821 23.76 230.821 23.76L231.141 24.48C231.141 24.48 231.007 25.04 230.741 26.16C230.527 27.28 230.287 28.8 230.021 30.72C229.754 32.5867 229.541 34.6133 229.381 36.8L224.261 37.12V34.48C224.261 32.6133 223.807 31.2 222.901 30.24C222.047 29.28 220.821 28.8 219.221 28.8C216.767 28.8 214.874 29.7067 213.541 31.52C212.207 33.3333 211.541 35.9733 211.541 39.44C211.541 43.8667 212.314 47.2533 213.861 49.6C215.407 51.8933 217.594 53.04 220.421 53.04C221.914 53.04 223.301 52.8533 224.581 52.48C225.914 52.0533 226.981 51.6533 227.781 51.28C228.581 50.9067 228.981 50.72 228.981 50.72L229.541 50.96L230.821 55.04C230.821 55.04 230.421 55.3333 229.621 55.92C228.874 56.5067 227.861 57.2 226.581 58C225.354 58.8 224.047 59.4933 222.661 60.08C221.274 60.6667 219.994 60.96 218.821 60.96ZM252.582 60.96C248.849 60.96 245.622 60.2133 242.902 58.72C240.235 57.2267 238.155 55.0933 236.662 52.32C235.222 49.5467 234.502 46.2933 234.502 42.56C234.502 39.6267 234.982 36.9333 235.942 34.48C236.902 32.0267 238.235 29.8933 239.942 28.08C241.649 26.2133 243.649 24.7733 245.942 23.76C248.235 22.6933 250.715 22.16 253.382 22.16C262.342 22.16 266.822 26.6933 266.822 35.76C266.822 36.56 266.742 37.3867 266.582 38.24C266.475 39.0933 266.369 39.76 266.262 40.24L265.302 41.2H244.582C244.689 44.88 245.542 47.76 247.142 49.84C248.795 51.8667 251.089 52.9867 254.022 53.2C256.955 53.4133 260.395 52.6133 264.342 50.8L264.902 51.12L266.182 55.04C265.115 55.84 263.782 56.72 262.182 57.68C260.582 58.5867 258.929 59.36 257.222 60C255.515 60.64 253.969 60.96 252.582 60.96ZM244.582 36.8L255.542 36.16C256.182 36.1067 256.582 35.9733 256.742 35.76C256.955 35.4933 257.062 35.0133 257.062 34.32C257.062 32.4 256.635 30.9333 255.782 29.92C254.929 28.9067 253.675 28.4 252.022 28.4C249.942 28.4 248.235 29.12 246.902 30.56C245.622 31.9467 244.849 34.0267 244.582 36.8ZM35.12 146.96C30.3733 146.96 27.7067 145.04 27.12 141.2L26.64 141.04C24.08 142.853 22 144.24 20.4 145.2C18.8533 146.16 17.8133 146.64 17.28 146.64C14.1867 146.64 11.4933 145.947 9.2 144.56C6.96 143.12 5.2 141.093 3.92 138.48C2.69333 135.813 2.08 132.693 2.08 129.12C2.08 125.12 2.93333 121.573 4.64 118.48C6.4 115.333 8.8 112.853 11.84 111.04C14.88 109.227 18.3467 108.32 22.24 108.32C22.9333 108.32 23.6 108.347 24.24 108.4C24.9333 108.4 25.6533 108.453 26.4 108.56V98.24C26.4 96.5867 26.1333 95.44 25.6 94.8C25.12 94.1067 24.2667 93.76 23.04 93.76C22.6667 93.76 22.24 93.8133 21.76 93.92C21.3333 93.9733 21.12 94 21.12 94L21.6 89.28C23.4667 89.0667 25.3333 88.8 27.2 88.48C29.0667 88.16 30.7467 87.8667 32.24 87.6C33.7867 87.28 35.0133 87.04 35.92 86.88C36.88 86.72 37.36 86.64 37.36 86.64L38.08 88C37.8133 88.4267 37.5467 89.5733 37.28 91.44C37.0133 93.3067 36.7733 95.76 36.56 98.8C36.4 101.787 36.24 105.227 36.08 109.12C35.92 113.013 35.7867 117.2 35.68 121.68C35.6267 126.107 35.6 130.72 35.6 135.52C35.6 136.533 35.8133 137.333 36.24 137.92C36.72 138.507 37.36 138.8 38.16 138.8C38.8 138.8 39.3867 138.693 39.92 138.48C40.5067 138.213 40.96 137.973 41.28 137.76C41.6533 137.547 41.84 137.44 41.84 137.44L43.12 139.12C43.12 139.12 42.9067 139.44 42.48 140.08C42.0533 140.72 41.4667 141.52 40.72 142.48C40.0267 143.387 39.2 144.267 38.24 145.12C37.28 145.973 36.24 146.587 35.12 146.96ZM20.24 139.28C20.9867 139.28 21.7067 139.147 22.4 138.88C23.1467 138.56 23.8133 138.24 24.4 137.92C24.9867 137.547 25.4667 137.227 25.84 136.96C26.2133 136.693 26.4 136.56 26.4 136.56V116.32C26.4 116.32 25.84 116.107 24.72 115.68C23.6533 115.2 22.24 114.96 20.48 114.96C17.8667 114.96 15.84 115.947 14.4 117.92C12.96 119.84 12.24 122.587 12.24 126.16C12.24 128.827 12.56 131.147 13.2 133.12C13.8933 135.04 14.8267 136.56 16 137.68C17.2267 138.747 18.64 139.28 20.24 139.28ZM63.1288 146.96C59.3954 146.96 56.1688 146.213 53.4488 144.72C50.7821 143.227 48.7021 141.093 47.2088 138.32C45.7688 135.547 45.0488 132.293 45.0488 128.56C45.0488 125.627 45.5288 122.933 46.4888 120.48C47.4488 118.027 48.7821 115.893 50.4888 114.08C52.1954 112.213 54.1954 110.773 56.4888 109.76C58.7821 108.693 61.2621 108.16 63.9288 108.16C72.8888 108.16 77.3688 112.693 77.3688 121.76C77.3688 122.56 77.2888 123.387 77.1288 124.24C77.0221 125.093 76.9154 125.76 76.8088 126.24L75.8488 127.2H55.1288C55.2354 130.88 56.0888 133.76 57.6888 135.84C59.3421 137.867 61.6354 138.987 64.5688 139.2C67.5021 139.413 70.9421 138.613 74.8888 136.8L75.4488 137.12L76.7288 141.04C75.6621 141.84 74.3288 142.72 72.7288 143.68C71.1288 144.587 69.4754 145.36 67.7688 146C66.0621 146.64 64.5154 146.96 63.1288 146.96ZM55.1288 122.8L66.0888 122.16C66.7288 122.107 67.1288 121.973 67.2888 121.76C67.5021 121.493 67.6088 121.013 67.6088 120.32C67.6088 118.4 67.1821 116.933 66.3288 115.92C65.4754 114.907 64.2221 114.4 62.5688 114.4C60.4888 114.4 58.7821 115.12 57.4488 116.56C56.1688 117.947 55.3954 120.027 55.1288 122.8ZM95.1081 146.72L95.6681 141.84C96.9481 141.52 97.8548 141.12 98.3881 140.64C98.9748 140.16 99.3215 139.493 99.4281 138.64C99.5881 137.733 99.6681 136.613 99.6681 135.28V98.16C99.6681 96.7733 99.5348 95.76 99.2681 95.12C99.0548 94.48 98.5748 94.08 97.8281 93.92C97.0815 93.7067 95.9615 93.6533 94.4681 93.76L94.1481 93.44L94.6281 89.2C97.2948 88.88 99.9615 88.5067 102.628 88.08C105.348 87.6533 108.068 87.1733 110.788 86.64L111.348 88.16C111.081 88.9067 110.815 90.2667 110.548 92.24C110.281 94.16 110.041 96.64 109.828 99.68C109.615 102.72 109.428 106.213 109.268 110.16C109.108 114.053 109.001 118.32 108.948 122.96C108.895 127.6 108.868 132.48 108.868 137.6C108.868 138.88 109.028 139.813 109.348 140.4C109.721 140.933 110.361 141.2 111.268 141.2L113.908 141.04L114.148 141.52L113.268 146.24C111.881 146.187 110.335 146.133 108.628 146.08C106.921 146.027 105.455 146 104.228 146C103.108 146 101.721 146.053 100.068 146.16C98.4148 146.32 96.7615 146.507 95.1081 146.72ZM145.404 146.96C143.057 146.96 141.19 146.427 139.804 145.36C138.47 144.293 137.67 142.773 137.404 140.8L136.764 140.56C135.75 141.627 134.684 142.64 133.564 143.6C132.444 144.507 131.404 145.253 130.444 145.84C129.484 146.373 128.657 146.64 127.964 146.64C125.884 146.64 124.017 146.133 122.364 145.12C120.71 144.107 119.404 142.72 118.444 140.96C117.484 139.2 117.004 137.227 117.004 135.04C117.004 133.387 117.43 131.973 118.284 130.8C119.19 129.573 120.31 128.773 121.644 128.4L137.084 124.8L137.164 122.88C137.164 120.587 136.55 118.8 135.324 117.52C134.15 116.24 132.47 115.6 130.284 115.6C128.79 115.6 127.19 115.973 125.484 116.72C123.777 117.413 122.257 118.293 120.924 119.36L120.204 119.04L118.844 114.24C120.39 113.333 122.124 112.427 124.044 111.52C125.964 110.56 127.777 109.76 129.484 109.12C131.244 108.48 132.577 108.16 133.484 108.16C136.577 108.16 139.11 108.64 141.084 109.6C143.057 110.56 144.497 111.867 145.404 113.52C146.31 115.12 146.764 116.96 146.764 119.04C146.764 119.733 146.684 120.8 146.524 122.24C146.364 123.68 146.177 125.253 145.964 126.96C145.75 128.667 145.564 130.293 145.404 131.84C145.244 133.387 145.164 134.613 145.164 135.52C145.164 136.533 145.404 137.333 145.884 137.92C146.417 138.507 147.137 138.8 148.044 138.8C148.737 138.8 149.43 138.64 150.124 138.32C150.87 138 151.457 137.707 151.884 137.44L153.084 139.12C152.55 140.027 151.857 141.067 151.004 142.24C150.15 143.36 149.244 144.373 148.284 145.28C147.324 146.133 146.364 146.693 145.404 146.96ZM130.924 139.04C131.724 139.04 132.657 138.827 133.724 138.4C134.844 137.92 135.83 137.36 136.684 136.72L136.924 129.12L128.364 131.52C127.084 131.893 126.444 132.773 126.444 134.16C126.444 135.547 126.844 136.72 127.644 137.68C128.497 138.587 129.59 139.04 130.924 139.04ZM195.982 146.88L196.622 141.84C197.742 141.627 198.622 141.307 199.262 140.88C199.902 140.453 200.329 139.813 200.542 138.96C200.809 138.053 200.942 136.827 200.942 135.28V119.6C200.942 117.733 200.649 116.533 200.062 116C199.475 115.413 198.195 115.12 196.222 115.12H184.382C184.382 118.747 184.329 122.4 184.222 126.08C184.169 129.76 184.142 133.413 184.142 137.04C184.142 139.547 185.235 140.8 187.422 140.8C188.755 140.8 189.902 140.773 190.862 140.72C191.875 140.667 192.382 140.64 192.382 140.64L192.702 141.04L191.902 146.24C191.902 146.24 191.475 146.213 190.622 146.16C189.769 146.16 188.702 146.133 187.422 146.08C186.195 146.08 184.942 146.053 183.662 146C182.382 146 181.315 146 180.462 146C179.342 146 178.169 146 176.942 146C175.769 146.053 174.622 146.107 173.502 146.16C172.435 146.267 171.582 146.347 170.942 146.4C170.302 146.453 169.982 146.48 169.982 146.48L170.462 141.6C172.222 141.387 173.395 140.88 173.982 140.08C174.622 139.28 174.942 137.787 174.942 135.6V118.32C174.889 117.093 174.515 116.267 173.822 115.84C173.129 115.36 171.769 115.093 169.742 115.04L169.422 114.56L170.062 110.48L174.942 109.68C174.942 104.987 175.795 100.933 177.502 97.52C179.209 94.0533 181.662 91.3867 184.862 89.52C188.062 87.6 191.929 86.64 196.462 86.64C198.275 86.64 200.009 86.8267 201.662 87.2C203.369 87.52 205.182 88.1067 207.102 88.96L207.422 90.16C207.422 90.16 207.289 90.5333 207.022 91.28C206.755 91.9733 206.382 92.9067 205.902 94.08C205.475 95.2533 204.995 96.56 204.462 98L203.502 98.24C203.502 98.24 203.262 98.0267 202.782 97.6C202.302 97.12 201.609 96.5867 200.702 96C199.795 95.4133 198.729 94.9067 197.502 94.48C196.329 94 195.022 93.76 193.582 93.76C191.395 93.76 189.635 94.1867 188.302 95.04C187.022 95.84 186.062 97.1733 185.422 99.04C184.835 100.853 184.542 103.28 184.542 106.32L184.462 109.84C188.569 109.84 191.929 109.84 194.542 109.84C197.155 109.787 199.369 109.707 201.182 109.6C202.995 109.44 204.675 109.253 206.222 109.04C207.769 108.827 209.475 108.533 211.342 108.16L212.062 109.44C211.795 110.027 211.529 111.173 211.262 112.88C211.049 114.533 210.862 116.613 210.702 119.12C210.542 121.627 210.409 124.453 210.302 127.6C210.195 130.747 210.142 134.08 210.142 137.6C210.142 138.88 210.329 139.787 210.702 140.32C211.075 140.853 211.715 141.12 212.622 141.12C213.049 141.12 213.529 141.093 214.062 141.04C214.649 140.987 214.942 140.96 214.942 140.96L215.182 141.36L214.382 146.24C214.382 146.24 214.089 146.213 213.502 146.16C212.915 146.16 212.142 146.133 211.182 146.08C210.275 146.08 209.315 146.053 208.302 146C207.342 146 206.435 146 205.582 146C204.302 146 202.915 146.08 201.422 146.24C199.929 146.4 198.649 146.533 197.582 146.64C196.515 146.8 195.982 146.88 195.982 146.88ZM242.551 141.68C243.885 141.413 244.818 140.933 245.351 140.24C245.938 139.493 246.258 138.48 246.311 137.2L246.551 123.36C246.551 121.013 246.125 119.28 245.271 118.16C244.418 116.987 243.111 116.4 241.351 116.4C240.498 116.4 239.591 116.587 238.631 116.96C237.725 117.28 236.898 117.68 236.151 118.16C235.405 118.64 234.791 119.067 234.311 119.44C234.258 120.88 234.178 122.507 234.071 124.32C233.965 126.133 233.858 127.947 233.751 129.76C233.698 131.52 233.645 133.093 233.591 134.48C233.538 135.867 233.511 136.853 233.511 137.44C233.511 138.827 233.698 139.787 234.071 140.32C234.445 140.8 235.058 141.04 235.911 141.04C236.285 141.04 236.738 141.04 237.271 141.04C237.805 140.987 238.071 140.96 238.071 140.96L238.231 141.28L237.431 146.24C237.431 146.24 236.951 146.213 235.991 146.16C235.031 146.107 233.885 146.053 232.551 146C231.271 146 230.098 146 229.031 146C227.645 146 226.205 146.027 224.711 146.08C223.271 146.187 222.045 146.267 221.031 146.32C220.071 146.427 219.591 146.48 219.591 146.48L220.231 141.52C221.778 141.307 222.845 140.88 223.431 140.24C224.071 139.6 224.391 138.533 224.391 137.04V120.08C224.391 118.267 224.098 117.013 223.511 116.32C222.978 115.627 221.965 115.28 220.471 115.28H219.431L219.111 114.88L219.511 110.72C221.965 110.347 224.311 109.973 226.551 109.6C228.791 109.173 230.631 108.827 232.071 108.56C233.511 108.24 234.231 108.08 234.231 108.08L234.871 108.88C234.871 108.88 234.738 109.467 234.471 110.64C234.258 111.76 234.098 113.013 233.991 114.4L234.311 114.72C234.951 114.187 235.725 113.547 236.631 112.8C237.591 112.053 238.578 111.333 239.591 110.64C240.658 109.947 241.645 109.36 242.551 108.88C243.458 108.4 244.178 108.16 244.711 108.16C248.498 108.16 251.431 109.067 253.511 110.88C255.645 112.693 256.711 115.227 256.711 118.48C256.711 119.28 256.631 120.507 256.471 122.16C256.311 123.813 256.125 125.627 255.911 127.6C255.751 129.573 255.591 131.44 255.431 133.2C255.325 134.96 255.271 136.347 255.271 137.36C255.271 138.693 255.458 139.68 255.831 140.32C256.205 140.907 256.845 141.2 257.751 141.2C258.231 141.2 258.765 141.173 259.351 141.12C259.938 141.067 260.231 141.04 260.231 141.04L260.391 141.36L259.671 146.24C259.671 146.24 259.351 146.213 258.711 146.16C258.125 146.16 257.378 146.133 256.471 146.08C255.565 146.08 254.631 146.053 253.671 146C252.711 146 251.831 146 251.031 146C250.231 146 249.325 146.027 248.311 146.08C247.351 146.187 246.391 146.267 245.431 146.32C244.471 146.373 243.671 146.427 243.031 146.48C242.445 146.587 242.151 146.64 242.151 146.64L242.551 141.68ZM35.12 232.96C30.3733 232.96 27.7067 231.04 27.12 227.2L26.64 227.04C24.08 228.853 22 230.24 20.4 231.2C18.8533 232.16 17.8133 232.64 17.28 232.64C14.1867 232.64 11.4933 231.947 9.2 230.56C6.96 229.12 5.2 227.093 3.92 224.48C2.69333 221.813 2.08 218.693 2.08 215.12C2.08 211.12 2.93333 207.573 4.64 204.48C6.4 201.333 8.8 198.853 11.84 197.04C14.88 195.227 18.3467 194.32 22.24 194.32C22.9333 194.32 23.6 194.347 24.24 194.4C24.9333 194.4 25.6533 194.453 26.4 194.56V184.24C26.4 182.587 26.1333 181.44 25.6 180.8C25.12 180.107 24.2667 179.76 23.04 179.76C22.6667 179.76 22.24 179.813 21.76 179.92C21.3333 179.973 21.12 180 21.12 180L21.6 175.28C23.4667 175.067 25.3333 174.8 27.2 174.48C29.0667 174.16 30.7467 173.867 32.24 173.6C33.7867 173.28 35.0133 173.04 35.92 172.88C36.88 172.72 37.36 172.64 37.36 172.64L38.08 174C37.8133 174.427 37.5467 175.573 37.28 177.44C37.0133 179.307 36.7733 181.76 36.56 184.8C36.4 187.787 36.24 191.227 36.08 195.12C35.92 199.013 35.7867 203.2 35.68 207.68C35.6267 212.107 35.6 216.72 35.6 221.52C35.6 222.533 35.8133 223.333 36.24 223.92C36.72 224.507 37.36 224.8 38.16 224.8C38.8 224.8 39.3867 224.693 39.92 224.48C40.5067 224.213 40.96 223.973 41.28 223.76C41.6533 223.547 41.84 223.44 41.84 223.44L43.12 225.12C43.12 225.12 42.9067 225.44 42.48 226.08C42.0533 226.72 41.4667 227.52 40.72 228.48C40.0267 229.387 39.2 230.267 38.24 231.12C37.28 231.973 36.24 232.587 35.12 232.96ZM20.24 225.28C20.9867 225.28 21.7067 225.147 22.4 224.88C23.1467 224.56 23.8133 224.24 24.4 223.92C24.9867 223.547 25.4667 223.227 25.84 222.96C26.2133 222.693 26.4 222.56 26.4 222.56V202.32C26.4 202.32 25.84 202.107 24.72 201.68C23.6533 201.2 22.24 200.96 20.48 200.96C17.8667 200.96 15.84 201.947 14.4 203.92C12.96 205.84 12.24 208.587 12.24 212.16C12.24 214.827 12.56 217.147 13.2 219.12C13.8933 221.04 14.8267 222.56 16 223.68C17.2267 224.747 18.64 225.28 20.24 225.28ZM48.9688 205.04C48.9688 203.707 48.7554 202.72 48.3288 202.08C47.9021 201.44 47.2088 201.12 46.2488 201.12C45.7688 201.12 45.3154 201.173 44.8888 201.28C44.4621 201.333 44.2488 201.36 44.2488 201.36L44.7288 196.72C46.3821 196.507 48.0354 196.267 49.6888 196C51.3954 195.68 52.9688 195.387 54.4088 195.12C55.8488 194.8 56.9954 194.56 57.8488 194.4C58.7554 194.24 59.2088 194.16 59.2088 194.16L59.9288 195.44C59.6088 196.133 59.3154 197.253 59.0488 198.8C58.8354 200.347 58.6221 202.187 58.4088 204.32C58.1954 206.4 58.0354 208.64 57.9288 211.04C57.8221 213.387 57.7688 215.76 57.7688 218.16C57.7688 222.48 59.4488 224.64 62.8088 224.64C64.0354 224.64 65.2354 224.32 66.4088 223.68C67.6354 222.987 68.7554 222.293 69.7688 221.6V205.12C69.7688 203.573 69.5288 202.56 69.0488 202.08C68.6221 201.547 67.7154 201.253 66.3288 201.2C66.1154 201.2 65.8221 201.227 65.4488 201.28C65.1288 201.28 64.9421 201.28 64.8888 201.28L65.5288 196.72C67.2888 196.507 69.0221 196.267 70.7288 196C72.4888 195.68 74.0888 195.413 75.5288 195.2C76.9688 194.933 78.1421 194.72 79.0488 194.56C79.9554 194.4 80.4088 194.32 80.4088 194.32L81.1288 195.6C80.7554 196.4 80.4088 198.107 80.0888 200.72C79.7688 203.28 79.5021 206.373 79.2888 210C79.0754 213.627 78.9688 217.467 78.9688 221.52C78.9688 222.533 79.2088 223.333 79.6888 223.92C80.2221 224.507 80.9421 224.8 81.8488 224.8C82.4888 224.8 83.1021 224.693 83.6888 224.48C84.2754 224.213 84.7554 223.973 85.1288 223.76C85.5021 223.547 85.6888 223.44 85.6888 223.44L86.8888 225.04C86.8888 225.04 86.6488 225.413 86.1688 226.16C85.6888 226.853 85.0221 227.707 84.1688 228.72C83.3688 229.68 82.4888 230.587 81.5288 231.44C80.5688 232.24 79.6088 232.747 78.6488 232.96C73.7421 232.96 71.0221 230.907 70.4888 226.8L69.8488 226.48C67.7688 228.4 65.9021 229.947 64.2488 231.12C62.6488 232.293 61.5288 232.88 60.8888 232.88C56.8354 232.88 53.7421 232.027 51.6088 230.32C49.4754 228.613 48.4088 226.133 48.4088 222.88L48.9688 205.04ZM126.067 227.68C127.347 227.413 128.254 226.933 128.787 226.24C129.374 225.493 129.694 224.48 129.747 223.2L129.987 209.36C129.987 207.013 129.56 205.28 128.707 204.16C127.854 202.987 126.547 202.4 124.787 202.4C123.934 202.4 123.027 202.587 122.067 202.96C121.16 203.333 120.307 203.76 119.507 204.24C118.76 204.72 118.174 205.12 117.747 205.44C117.64 206.88 117.534 208.507 117.427 210.32C117.374 212.133 117.294 213.947 117.187 215.76C117.134 217.52 117.08 219.093 117.027 220.48C116.974 221.867 116.947 222.853 116.947 223.44C116.947 224.827 117.134 225.787 117.507 226.32C117.88 226.8 118.494 227.04 119.347 227.04C119.72 227.04 120.174 227.04 120.707 227.04C121.24 226.987 121.507 226.96 121.507 226.96L121.667 227.28L120.867 232.24C120.867 232.24 120.387 232.213 119.427 232.16C118.467 232.107 117.32 232.053 115.987 232C114.707 232 113.534 232 112.467 232C111.08 232 109.64 232 108.147 232C106.707 232.053 105.48 232.107 104.467 232.16C103.454 232.213 102.947 232.24 102.947 232.24L103.667 227.36C105.214 227.2 106.28 226.827 106.867 226.24C107.507 225.6 107.827 224.533 107.827 223.04V206.08C107.827 204.267 107.534 203.013 106.947 202.32C106.414 201.627 105.4 201.28 103.907 201.28H102.867L102.547 200.88L102.947 196.72C105.4 196.347 107.72 195.973 109.907 195.6C112.147 195.173 113.987 194.827 115.427 194.56C116.92 194.24 117.667 194.08 117.667 194.08L118.307 194.88C118.307 194.88 118.174 195.467 117.907 196.64C117.694 197.76 117.534 199.013 117.427 200.4L117.667 200.64C118.307 200.107 119.107 199.493 120.067 198.8C121.08 198.053 122.094 197.333 123.107 196.64C124.174 195.893 125.16 195.307 126.067 194.88C126.974 194.4 127.667 194.16 128.147 194.16C131.134 194.16 133.587 194.72 135.507 195.84C137.427 196.96 138.734 198.613 139.427 200.8C140.014 200.32 140.787 199.707 141.747 198.96C142.707 198.213 143.72 197.493 144.787 196.8C145.854 196.053 146.867 195.44 147.827 194.96C148.787 194.427 149.534 194.16 150.067 194.16C153.907 194.16 156.867 195.093 158.947 196.96C161.08 198.773 162.147 201.28 162.147 204.48C162.147 205.28 162.067 206.507 161.907 208.16C161.747 209.813 161.56 211.627 161.347 213.6C161.187 215.573 161.027 217.44 160.867 219.2C160.707 220.96 160.627 222.347 160.627 223.36C160.627 224.8 160.814 225.813 161.187 226.4C161.614 226.933 162.28 227.2 163.187 227.2C163.667 227.2 164.2 227.173 164.787 227.12C165.374 227.067 165.667 227.04 165.667 227.04L165.827 227.36L165.027 232.24C165.027 232.24 164.707 232.213 164.067 232.16C163.48 232.16 162.734 232.133 161.827 232.08C160.92 232.08 159.96 232.053 158.947 232C157.987 232 157.107 232 156.307 232C155.56 232 154.68 232.027 153.667 232.08C152.707 232.133 151.774 232.16 150.867 232.16C149.96 232.213 149.187 232.267 148.547 232.32C147.96 232.373 147.667 232.4 147.667 232.4L148.227 227.44C149.454 227.227 150.334 226.827 150.867 226.24C151.4 225.6 151.667 224.587 151.667 223.2L151.907 209.36C151.96 207.013 151.56 205.28 150.707 204.16C149.854 202.987 148.52 202.4 146.707 202.4C145.854 202.4 144.974 202.56 144.067 202.88C143.214 203.2 142.414 203.6 141.667 204.08C140.92 204.56 140.307 204.987 139.827 205.36L138.787 223.36C138.787 224.693 138.974 225.68 139.347 226.32C139.72 226.907 140.36 227.2 141.267 227.2C141.694 227.2 142.174 227.173 142.707 227.12C143.24 227.067 143.507 227.04 143.507 227.04L143.667 227.36L142.867 232.24C142.867 232.24 142.574 232.213 141.987 232.16C141.4 232.16 140.654 232.133 139.747 232.08C138.894 232.08 137.987 232.053 137.027 232C136.067 232 135.214 232 134.467 232C133.667 232 132.76 232.027 131.747 232.08C130.787 232.187 129.827 232.267 128.867 232.32C127.907 232.373 127.107 232.427 126.467 232.48C125.827 232.587 125.507 232.64 125.507 232.64L126.067 227.68ZM187.018 232.96C183.605 232.96 180.645 232.213 178.138 230.72C175.631 229.227 173.658 227.093 172.218 224.32C170.831 221.547 170.138 218.32 170.138 214.64C170.138 210.587 170.938 207.04 172.538 204C174.191 200.907 176.458 198.507 179.338 196.8C182.271 195.04 185.631 194.16 189.418 194.16C192.885 194.16 195.871 194.907 198.378 196.4C200.885 197.893 202.805 200 204.138 202.72C205.525 205.44 206.218 208.667 206.218 212.4C206.218 216.453 205.418 220.027 203.818 223.12C202.218 226.213 199.951 228.64 197.018 230.4C194.138 232.107 190.805 232.96 187.018 232.96ZM188.618 226.96C190.911 226.96 192.645 226.053 193.818 224.24C195.045 222.373 195.658 219.653 195.658 216.08C195.658 212.72 195.338 209.92 194.698 207.68C194.058 205.387 193.125 203.68 191.898 202.56C190.725 201.44 189.285 200.88 187.578 200.88C185.285 200.88 183.525 201.787 182.298 203.6C181.125 205.413 180.538 208.133 180.538 211.76C180.538 215.12 180.858 217.947 181.498 220.24C182.138 222.48 183.045 224.16 184.218 225.28C185.445 226.4 186.911 226.96 188.618 226.96ZM234.348 227.68C235.681 227.413 236.615 226.933 237.148 226.24C237.735 225.493 238.055 224.48 238.108 223.2L238.348 209.36C238.348 207.013 237.921 205.28 237.068 204.16C236.215 202.987 234.908 202.4 233.148 202.4C232.295 202.4 231.388 202.587 230.428 202.96C229.521 203.28 228.695 203.68 227.948 204.16C227.201 204.64 226.588 205.067 226.108 205.44C226.055 206.88 225.975 208.507 225.868 210.32C225.761 212.133 225.655 213.947 225.548 215.76C225.495 217.52 225.441 219.093 225.388 220.48C225.335 221.867 225.308 222.853 225.308 223.44C225.308 224.827 225.495 225.787 225.868 226.32C226.241 226.8 226.855 227.04 227.708 227.04C228.081 227.04 228.535 227.04 229.068 227.04C229.601 226.987 229.868 226.96 229.868 226.96L230.028 227.28L229.228 232.24C229.228 232.24 228.748 232.213 227.788 232.16C226.828 232.107 225.681 232.053 224.348 232C223.068 232 221.895 232 220.828 232C219.441 232 218.001 232.027 216.508 232.08C215.068 232.187 213.841 232.267 212.828 232.32C211.868 232.427 211.388 232.48 211.388 232.48L212.028 227.52C213.575 227.307 214.641 226.88 215.228 226.24C215.868 225.6 216.188 224.533 216.188 223.04V206.08C216.188 204.267 215.895 203.013 215.308 202.32C214.775 201.627 213.761 201.28 212.268 201.28H211.228L210.908 200.88L211.308 196.72C213.761 196.347 216.108 195.973 218.348 195.6C220.588 195.173 222.428 194.827 223.868 194.56C225.308 194.24 226.028 194.08 226.028 194.08L226.668 194.88C226.668 194.88 226.535 195.467 226.268 196.64C226.055 197.76 225.895 199.013 225.788 200.4L226.108 200.72C226.748 200.187 227.521 199.547 228.428 198.8C229.388 198.053 230.375 197.333 231.388 196.64C232.455 195.947 233.441 195.36 234.348 194.88C235.255 194.4 235.975 194.16 236.508 194.16C240.295 194.16 243.228 195.067 245.308 196.88C247.441 198.693 248.508 201.227 248.508 204.48C248.508 205.28 248.428 206.507 248.268 208.16C248.108 209.813 247.921 211.627 247.708 213.6C247.548 215.573 247.388 217.44 247.228 219.2C247.121 220.96 247.068 222.347 247.068 223.36C247.068 224.693 247.255 225.68 247.628 226.32C248.001 226.907 248.641 227.2 249.548 227.2C250.028 227.2 250.561 227.173 251.148 227.12C251.735 227.067 252.028 227.04 252.028 227.04L252.188 227.36L251.468 232.24C251.468 232.24 251.148 232.213 250.508 232.16C249.921 232.16 249.175 232.133 248.268 232.08C247.361 232.08 246.428 232.053 245.468 232C244.508 232 243.628 232 242.828 232C242.028 232 241.121 232.027 240.108 232.08C239.148 232.187 238.188 232.267 237.228 232.32C236.268 232.373 235.468 232.427 234.828 232.48C234.241 232.587 233.948 232.64 233.948 232.64L234.348 227.68ZM288.87 232.96C284.123 232.96 281.457 231.04 280.87 227.2L280.39 227.04C277.83 228.853 275.75 230.24 274.15 231.2C272.603 232.16 271.563 232.64 271.03 232.64C267.937 232.64 265.243 231.947 262.95 230.56C260.71 229.12 258.95 227.093 257.67 224.48C256.443 221.813 255.83 218.693 255.83 215.12C255.83 211.12 256.683 207.573 258.39 204.48C260.15 201.333 262.55 198.853 265.59 197.04C268.63 195.227 272.097 194.32 275.99 194.32C276.683 194.32 277.35 194.347 277.99 194.4C278.683 194.4 279.403 194.453 280.15 194.56V184.24C280.15 182.587 279.883 181.44 279.35 180.8C278.87 180.107 278.017 179.76 276.79 179.76C276.417 179.76 275.99 179.813 275.51 179.92C275.083 179.973 274.87 180 274.87 180L275.35 175.28C277.217 175.067 279.083 174.8 280.95 174.48C282.817 174.16 284.497 173.867 285.99 173.6C287.537 173.28 288.763 173.04 289.67 172.88C290.63 172.72 291.11 172.64 291.11 172.64L291.83 174C291.563 174.427 291.297 175.573 291.03 177.44C290.763 179.307 290.523 181.76 290.31 184.8C290.15 187.787 289.99 191.227 289.83 195.12C289.67 199.013 289.537 203.2 289.43 207.68C289.377 212.107 289.35 216.72 289.35 221.52C289.35 222.533 289.563 223.333 289.99 223.92C290.47 224.507 291.11 224.8 291.91 224.8C292.55 224.8 293.137 224.693 293.67 224.48C294.257 224.213 294.71 223.973 295.03 223.76C295.403 223.547 295.59 223.44 295.59 223.44L296.87 225.12C296.87 225.12 296.657 225.44 296.23 226.08C295.803 226.72 295.217 227.52 294.47 228.48C293.777 229.387 292.95 230.267 291.99 231.12C291.03 231.973 289.99 232.587 288.87 232.96ZM273.99 225.28C274.737 225.28 275.457 225.147 276.15 224.88C276.897 224.56 277.563 224.24 278.15 223.92C278.737 223.547 279.217 223.227 279.59 222.96C279.963 222.693 280.15 222.56 280.15 222.56V202.32C280.15 202.32 279.59 202.107 278.47 201.68C277.403 201.2 275.99 200.96 274.23 200.96C271.617 200.96 269.59 201.947 268.15 203.92C266.71 205.84 265.99 208.587 265.99 212.16C265.99 214.827 266.31 217.147 266.95 219.12C267.643 221.04 268.577 222.56 269.75 223.68C270.977 224.747 272.39 225.28 273.99 225.28ZM316.879 232.96C313.145 232.96 309.919 232.213 307.199 230.72C304.532 229.227 302.452 227.093 300.959 224.32C299.519 221.547 298.799 218.293 298.799 214.56C298.799 211.627 299.279 208.933 300.239 206.48C301.199 204.027 302.532 201.893 304.239 200.08C305.945 198.213 307.945 196.773 310.239 195.76C312.532 194.693 315.012 194.16 317.679 194.16C326.639 194.16 331.119 198.693 331.119 207.76C331.119 208.56 331.039 209.387 330.879 210.24C330.772 211.093 330.665 211.76 330.559 212.24L329.599 213.2H308.879C308.985 216.88 309.839 219.76 311.439 221.84C313.092 223.867 315.385 224.987 318.319 225.2C321.252 225.413 324.692 224.613 328.639 222.8L329.199 223.12L330.479 227.04C329.412 227.84 328.079 228.72 326.479 229.68C324.879 230.587 323.225 231.36 321.519 232C319.812 232.64 318.265 232.96 316.879 232.96ZM308.879 208.8L319.839 208.16C320.479 208.107 320.879 207.973 321.039 207.76C321.252 207.493 321.359 207.013 321.359 206.32C321.359 204.4 320.932 202.933 320.079 201.92C319.225 200.907 317.972 200.4 316.319 200.4C314.239 200.4 312.532 201.12 311.199 202.56C309.919 203.947 309.145 206.027 308.879 208.8ZM356.736 232.88C354.816 232.88 353.349 232.32 352.336 231.2C351.376 230.08 350.896 228.667 350.896 226.96C350.896 225.04 351.456 223.493 352.576 222.32C353.749 221.093 355.322 220.48 357.296 220.48C359.162 220.48 360.602 221.04 361.616 222.16C362.629 223.227 363.136 224.64 363.136 226.4C363.136 228.267 362.549 229.813 361.376 231.04C360.256 232.267 358.709 232.88 356.736 232.88Z" fill="black"/>
</svg>
