<svg width="600" height="600" viewBox="0 0 600 600" fill="none" xmlns="http://www.w3.org/2000/svg">
<rect width="600" height="600" fill="white"/>
<path d="M51.6 221.9L52.3 215.8C53.9 215.4 55.0333 214.9 55.7 214.3C56.4333 213.7 56.8667 212.867 57 211.8C57.2 210.667 57.3 209.267 57.3 207.6V161.2C57.3 159.467 57.1333 158.2 56.8 157.4C56.5333 156.6 55.9333 156.1 55 155.9C54.0667 155.633 52.6667 155.567 50.8 155.7L50.4 155.3L51 150C54.3333 149.6 57.6667 149.133 61 148.6C64.4 148.067 67.8 147.467 71.2 146.8L71.9 148.7C71.5667 149.633 71.2333 151.333 70.9 153.8C70.5667 156.2 70.2667 159.3 70 163.1C69.7333 166.9 69.5 171.267 69.3 176.2C69.1 181.067 68.9667 186.4 68.9 192.2C68.8333 198 68.8 204.1 68.8 210.5C68.8 212.1 69 213.267 69.4 214C69.8667 214.667 70.6667 215 71.8 215L75.1 214.8L75.4 215.4L74.3 221.3C72.5667 221.233 70.6333 221.167 68.5 221.1C66.3667 221.033 64.5333 221 63 221C61.6 221 59.8667 221.067 57.8 221.2C55.7333 221.4 53.6667 221.633 51.6 221.9ZM83.3695 182.9L79.2695 180.8L78.9695 179.2C80.3695 177.8 81.5029 176.2 82.3695 174.4C83.2362 172.6 83.6695 170.967 83.6695 169.5C83.6695 167.9 83.2029 166.4 82.2695 165C81.3362 163.6 80.1362 162.533 78.6695 161.8L78.5695 160.4C81.5029 157.067 84.3362 155.4 87.0695 155.4C89.0695 155.4 90.7362 156.333 92.0695 158.2C93.4695 160 94.1695 162.267 94.1695 165C94.1695 167.667 93.2029 170.6 91.2695 173.8C89.4029 177 86.7695 180.033 83.3695 182.9ZM135.954 222.2C133.021 222.2 130.687 221.533 128.954 220.2C127.287 218.867 126.287 216.967 125.954 214.5L125.154 214.2C123.887 215.533 122.554 216.8 121.154 218C119.754 219.133 118.454 220.067 117.254 220.8C116.054 221.467 115.021 221.8 114.154 221.8C111.554 221.8 109.221 221.167 107.154 219.9C105.087 218.633 103.454 216.9 102.254 214.7C101.054 212.5 100.454 210.033 100.454 207.3C100.454 205.233 100.987 203.467 102.054 202C103.187 200.467 104.587 199.467 106.254 199L125.554 194.5L125.654 192.1C125.654 189.233 124.887 187 123.354 185.4C121.887 183.8 119.787 183 117.054 183C115.187 183 113.187 183.467 111.054 184.4C108.921 185.267 107.021 186.367 105.354 187.7L104.454 187.3L102.754 181.3C104.687 180.167 106.854 179.033 109.254 177.9C111.654 176.7 113.921 175.7 116.054 174.9C118.254 174.1 119.921 173.7 121.054 173.7C124.921 173.7 128.087 174.3 130.554 175.5C133.021 176.7 134.821 178.333 135.954 180.4C137.087 182.4 137.654 184.7 137.654 187.3C137.654 188.167 137.554 189.5 137.354 191.3C137.154 193.1 136.921 195.067 136.654 197.2C136.387 199.333 136.154 201.367 135.954 203.3C135.754 205.233 135.654 206.767 135.654 207.9C135.654 209.167 135.954 210.167 136.554 210.9C137.221 211.633 138.121 212 139.254 212C140.121 212 140.987 211.8 141.854 211.4C142.787 211 143.521 210.633 144.054 210.3L145.554 212.4C144.887 213.533 144.021 214.833 142.954 216.3C141.887 217.7 140.754 218.967 139.554 220.1C138.354 221.167 137.154 221.867 135.954 222.2ZM117.854 212.3C118.854 212.3 120.021 212.033 121.354 211.5C122.754 210.9 123.987 210.2 125.054 209.4L125.354 199.9L114.654 202.9C113.054 203.367 112.254 204.467 112.254 206.2C112.254 207.933 112.754 209.4 113.754 210.6C114.821 211.733 116.187 212.3 117.854 212.3ZM168.194 245.2C164.66 245.2 161.56 244.6 158.894 243.4C156.294 242.267 154.26 240.633 152.794 238.5C151.327 236.433 150.594 233.967 150.594 231.1C151.394 230.233 152.694 229.133 154.494 227.8C156.36 226.467 158.394 225.133 160.594 223.8V223.1C157.394 222.567 154.927 221.433 153.194 219.7C151.46 217.9 150.494 215.633 150.294 212.9C151.494 211.7 152.76 210.533 154.094 209.4C155.494 208.267 156.96 207.2 158.494 206.2V204.2L165.294 206.2C163.827 207.133 162.727 207.967 161.994 208.7C161.327 209.433 160.994 210.167 160.994 210.9C160.994 212.1 161.794 212.967 163.394 213.5C165.06 214.033 167.16 214.433 169.694 214.7C172.294 214.967 175.027 215.267 177.894 215.6C180.76 215.933 183.46 216.467 185.994 217.2C188.527 217.933 190.594 219.033 192.194 220.5C193.86 221.967 194.694 224 194.694 226.6C194.694 228.933 193.96 231.2 192.494 233.4C191.027 235.667 189.027 237.667 186.494 239.4C184.027 241.2 181.194 242.6 177.994 243.6C174.86 244.667 171.594 245.2 168.194 245.2ZM171.994 237.8C174.194 237.8 176.16 237.467 177.894 236.8C179.627 236.2 180.994 235.333 181.994 234.2C183.06 233.067 183.594 231.8 183.594 230.4C183.594 229.333 183.16 228.467 182.294 227.8C181.494 227.2 179.894 226.633 177.494 226.1C175.094 225.567 171.527 225 166.794 224.4C165.594 225.467 164.66 226.633 163.994 227.9C163.327 229.167 162.994 230.4 162.994 231.6C162.994 233.533 163.76 235.033 165.294 236.1C166.894 237.233 169.127 237.8 171.994 237.8ZM171.694 201.7C174.094 201.7 175.927 200.867 177.194 199.2C178.527 197.533 179.194 195.133 179.194 192C179.194 188.533 178.427 185.833 176.894 183.9C175.36 181.967 173.26 181 170.594 181C168.194 181 166.36 181.833 165.094 183.5C163.827 185.167 163.194 187.6 163.194 190.8C163.194 194.2 163.927 196.867 165.394 198.8C166.927 200.733 169.027 201.7 171.694 201.7ZM169.894 208.3C166.094 208.3 162.76 207.633 159.894 206.3C157.027 204.9 154.794 203 153.194 200.6C151.66 198.133 150.894 195.3 150.894 192.1C150.894 188.567 151.794 185.4 153.594 182.6C155.394 179.8 157.86 177.6 160.994 176C164.127 174.4 167.66 173.6 171.594 173.6C173.727 173.6 175.594 173.767 177.194 174.1C178.794 174.433 180.36 174.6 181.894 174.6C183.227 174.467 185.16 174.1 187.694 173.5C190.227 172.9 192.96 172.167 195.894 171.3L196.494 171.7L195.194 179.4C193.927 179.533 192.627 179.667 191.294 179.8C189.96 179.867 188.794 179.933 187.794 180L187.394 180.6C190.06 183.4 191.394 186.7 191.394 190.5C191.394 193.9 190.46 196.933 188.594 199.6C186.727 202.267 184.16 204.4 180.894 206C177.694 207.533 174.027 208.3 169.894 208.3ZM221.782 222.2C217.115 222.2 213.082 221.267 209.682 219.4C206.349 217.533 203.749 214.867 201.882 211.4C200.082 207.933 199.182 203.867 199.182 199.2C199.182 195.533 199.782 192.167 200.982 189.1C202.182 186.033 203.849 183.367 205.982 181.1C208.115 178.767 210.615 176.967 213.482 175.7C216.349 174.367 219.449 173.7 222.782 173.7C233.982 173.7 239.582 179.367 239.582 190.7C239.582 191.7 239.482 192.733 239.282 193.8C239.149 194.867 239.015 195.7 238.882 196.3L237.682 197.5H211.782C211.915 202.1 212.982 205.7 214.982 208.3C217.049 210.833 219.915 212.233 223.582 212.5C227.249 212.767 231.549 211.767 236.482 209.5L237.182 209.9L238.782 214.8C237.449 215.8 235.782 216.9 233.782 218.1C231.782 219.233 229.715 220.2 227.582 221C225.449 221.8 223.515 222.2 221.782 222.2ZM211.782 192L225.482 191.2C226.282 191.133 226.782 190.967 226.982 190.7C227.249 190.367 227.382 189.767 227.382 188.9C227.382 186.5 226.849 184.667 225.782 183.4C224.715 182.133 223.149 181.5 221.082 181.5C218.482 181.5 216.349 182.4 214.682 184.2C213.082 185.933 212.115 188.533 211.782 192ZM274.673 215.6C276.34 215.267 277.507 214.667 278.173 213.8C278.907 212.867 279.307 211.6 279.373 210L279.673 192.7C279.673 189.767 279.14 187.6 278.073 186.2C277.007 184.733 275.373 184 273.173 184C272.107 184 270.973 184.233 269.773 184.7C268.64 185.1 267.607 185.6 266.673 186.2C265.74 186.8 264.973 187.333 264.373 187.8C264.307 189.6 264.207 191.633 264.073 193.9C263.94 196.167 263.807 198.433 263.673 200.7C263.607 202.9 263.54 204.867 263.473 206.6C263.407 208.333 263.373 209.567 263.373 210.3C263.373 212.033 263.607 213.233 264.073 213.9C264.54 214.5 265.307 214.8 266.373 214.8C266.84 214.8 267.407 214.8 268.073 214.8C268.74 214.733 269.073 214.7 269.073 214.7L269.273 215.1L268.273 221.3C268.273 221.3 267.673 221.267 266.473 221.2C265.273 221.133 263.84 221.067 262.173 221C260.573 221 259.107 221 257.773 221C256.04 221 254.24 221.033 252.373 221.1C250.573 221.233 249.04 221.333 247.773 221.4C246.573 221.533 245.973 221.6 245.973 221.6L246.773 215.4C248.707 215.133 250.04 214.6 250.773 213.8C251.573 213 251.973 211.667 251.973 209.8V188.6C251.973 186.333 251.607 184.767 250.873 183.9C250.207 183.033 248.94 182.6 247.073 182.6H245.773L245.373 182.1L245.873 176.9C248.94 176.433 251.873 175.967 254.673 175.5C257.473 174.967 259.773 174.533 261.573 174.2C263.373 173.8 264.273 173.6 264.273 173.6L265.073 174.6C265.073 174.6 264.907 175.333 264.573 176.8C264.307 178.2 264.107 179.767 263.973 181.5L264.373 181.9C265.173 181.233 266.14 180.433 267.273 179.5C268.473 178.567 269.707 177.667 270.973 176.8C272.307 175.933 273.54 175.2 274.673 174.6C275.807 174 276.707 173.7 277.373 173.7C282.107 173.7 285.773 174.833 288.373 177.1C291.04 179.367 292.373 182.533 292.373 186.6C292.373 187.6 292.273 189.133 292.073 191.2C291.873 193.267 291.64 195.533 291.373 198C291.173 200.467 290.973 202.8 290.773 205C290.64 207.2 290.573 208.933 290.573 210.2C290.573 211.867 290.807 213.1 291.273 213.9C291.74 214.633 292.54 215 293.673 215C294.273 215 294.94 214.967 295.673 214.9C296.407 214.833 296.773 214.8 296.773 214.8L296.973 215.2L296.073 221.3C296.073 221.3 295.673 221.267 294.873 221.2C294.14 221.2 293.207 221.167 292.073 221.1C290.94 221.1 289.773 221.067 288.573 221C287.373 221 286.273 221 285.273 221C284.273 221 283.14 221.033 281.873 221.1C280.673 221.233 279.473 221.333 278.273 221.4C277.073 221.467 276.073 221.533 275.273 221.6C274.54 221.733 274.173 221.8 274.173 221.8L274.673 215.6ZM323.526 222.2C318.992 222.2 315.059 221.267 311.726 219.4C308.459 217.533 305.926 214.9 304.126 211.5C302.392 208.033 301.526 203.933 301.526 199.2C301.526 194.2 302.559 189.8 304.626 186C306.692 182.2 309.559 179.2 313.226 177C316.892 174.8 321.092 173.7 325.826 173.7C328.359 173.7 330.559 173.867 332.426 174.2C334.292 174.533 335.759 174.867 336.826 175.2C337.959 175.533 338.526 175.7 338.526 175.7L338.926 176.6C338.926 176.6 338.759 177.3 338.426 178.7C338.159 180.1 337.859 182 337.526 184.4C337.192 186.733 336.926 189.267 336.726 192L330.326 192.4V189.1C330.326 186.767 329.759 185 328.626 183.8C327.559 182.6 326.026 182 324.026 182C320.959 182 318.592 183.133 316.926 185.4C315.259 187.667 314.426 190.967 314.426 195.3C314.426 200.833 315.392 205.067 317.326 208C319.259 210.867 321.992 212.3 325.526 212.3C327.392 212.3 329.126 212.067 330.726 211.6C332.392 211.067 333.726 210.567 334.726 210.1C335.726 209.633 336.226 209.4 336.226 209.4L336.926 209.7L338.526 214.8C338.526 214.8 338.026 215.167 337.026 215.9C336.092 216.633 334.826 217.5 333.226 218.5C331.692 219.5 330.059 220.367 328.326 221.1C326.592 221.833 324.992 222.2 323.526 222.2ZM365.727 222.2C361.061 222.2 357.027 221.267 353.627 219.4C350.294 217.533 347.694 214.867 345.827 211.4C344.027 207.933 343.127 203.867 343.127 199.2C343.127 195.533 343.727 192.167 344.927 189.1C346.127 186.033 347.794 183.367 349.927 181.1C352.061 178.767 354.561 176.967 357.427 175.7C360.294 174.367 363.394 173.7 366.727 173.7C377.927 173.7 383.527 179.367 383.527 190.7C383.527 191.7 383.427 192.733 383.227 193.8C383.094 194.867 382.961 195.7 382.827 196.3L381.627 197.5H355.727C355.861 202.1 356.927 205.7 358.927 208.3C360.994 210.833 363.861 212.233 367.527 212.5C371.194 212.767 375.494 211.767 380.427 209.5L381.127 209.9L382.727 214.8C381.394 215.8 379.727 216.9 377.727 218.1C375.727 219.233 373.661 220.2 371.527 221C369.394 221.8 367.461 222.2 365.727 222.2ZM355.727 192L369.427 191.2C370.227 191.133 370.727 190.967 370.927 190.7C371.194 190.367 371.327 189.767 371.327 188.9C371.327 186.5 370.794 184.667 369.727 183.4C368.661 182.133 367.094 181.5 365.027 181.5C362.427 181.5 360.294 182.4 358.627 184.2C357.027 185.933 356.061 188.533 355.727 192ZM93.9 324.2C87.9667 324.2 84.6333 321.8 83.9 317L83.3 316.8C80.1 319.067 77.5 320.8 75.5 322C73.5667 323.2 72.2667 323.8 71.6 323.8C67.7333 323.8 64.3667 322.933 61.5 321.2C58.7 319.4 56.5 316.867 54.9 313.6C53.3667 310.267 52.6 306.367 52.6 301.9C52.6 296.9 53.6667 292.467 55.8 288.6C58 284.667 61 281.567 64.8 279.3C68.6 277.033 72.9333 275.9 77.8 275.9C78.6667 275.9 79.5 275.933 80.3 276C81.1667 276 82.0667 276.067 83 276.2V263.3C83 261.233 82.6667 259.8 82 259C81.4 258.133 80.3333 257.7 78.8 257.7C78.3333 257.7 77.8 257.767 77.2 257.9C76.6667 257.967 76.4 258 76.4 258L77 252.1C79.3333 251.833 81.6667 251.5 84 251.1C86.3333 250.7 88.4333 250.333 90.3 250C92.2333 249.6 93.7667 249.3 94.9 249.1C96.1 248.9 96.7 248.8 96.7 248.8L97.6 250.5C97.2667 251.033 96.9333 252.467 96.6 254.8C96.2667 257.133 95.9667 260.2 95.7 264C95.5 267.733 95.3 272.033 95.1 276.9C94.9 281.767 94.7333 287 94.6 292.6C94.5333 298.133 94.5 303.9 94.5 309.9C94.5 311.167 94.7667 312.167 95.3 312.9C95.9 313.633 96.7 314 97.7 314C98.5 314 99.2333 313.867 99.9 313.6C100.633 313.267 101.2 312.967 101.6 312.7C102.067 312.433 102.3 312.3 102.3 312.3L103.9 314.4C103.9 314.4 103.633 314.8 103.1 315.6C102.567 316.4 101.833 317.4 100.9 318.6C100.033 319.733 99 320.833 97.8 321.9C96.6 322.967 95.3 323.733 93.9 324.2ZM75.3 314.6C76.2333 314.6 77.1333 314.433 78 314.1C78.9333 313.7 79.7667 313.3 80.5 312.9C81.2333 312.433 81.8333 312.033 82.3 311.7C82.7667 311.367 83 311.2 83 311.2V285.9C83 285.9 82.3 285.633 80.9 285.1C79.5667 284.5 77.8 284.2 75.6 284.2C72.3333 284.2 69.8 285.433 68 287.9C66.2 290.3 65.3 293.733 65.3 298.2C65.3 301.533 65.7 304.433 66.5 306.9C67.3667 309.3 68.5333 311.2 70 312.6C71.5333 313.933 73.3 314.6 75.3 314.6ZM128.911 324.2C124.244 324.2 120.211 323.267 116.811 321.4C113.478 319.533 110.878 316.867 109.011 313.4C107.211 309.933 106.311 305.867 106.311 301.2C106.311 297.533 106.911 294.167 108.111 291.1C109.311 288.033 110.978 285.367 113.111 283.1C115.244 280.767 117.744 278.967 120.611 277.7C123.478 276.367 126.578 275.7 129.911 275.7C141.111 275.7 146.711 281.367 146.711 292.7C146.711 293.7 146.611 294.733 146.411 295.8C146.278 296.867 146.144 297.7 146.011 298.3L144.811 299.5H118.911C119.044 304.1 120.111 307.7 122.111 310.3C124.178 312.833 127.044 314.233 130.711 314.5C134.378 314.767 138.678 313.767 143.611 311.5L144.311 311.9L145.911 316.8C144.578 317.8 142.911 318.9 140.911 320.1C138.911 321.233 136.844 322.2 134.711 323C132.578 323.8 130.644 324.2 128.911 324.2ZM118.911 294L132.611 293.2C133.411 293.133 133.911 292.967 134.111 292.7C134.378 292.367 134.511 291.767 134.511 290.9C134.511 288.5 133.978 286.667 132.911 285.4C131.844 284.133 130.278 283.5 128.211 283.5C125.611 283.5 123.478 284.4 121.811 286.2C120.211 287.933 119.244 290.533 118.911 294ZM168.885 323.9L169.585 317.8C171.185 317.4 172.318 316.9 172.985 316.3C173.718 315.7 174.152 314.867 174.285 313.8C174.485 312.667 174.585 311.267 174.585 309.6V263.2C174.585 261.467 174.418 260.2 174.085 259.4C173.818 258.6 173.218 258.1 172.285 257.9C171.352 257.633 169.952 257.567 168.085 257.7L167.685 257.3L168.285 252C171.618 251.6 174.952 251.133 178.285 250.6C181.685 250.067 185.085 249.467 188.485 248.8L189.185 250.7C188.852 251.633 188.518 253.333 188.185 255.8C187.852 258.2 187.552 261.3 187.285 265.1C187.018 268.9 186.785 273.267 186.585 278.2C186.385 283.067 186.252 288.4 186.185 294.2C186.118 300 186.085 306.1 186.085 312.5C186.085 314.1 186.285 315.267 186.685 316C187.152 316.667 187.952 317 189.085 317L192.385 316.8L192.685 317.4L191.585 323.3C189.852 323.233 187.918 323.167 185.785 323.1C183.652 323.033 181.818 323 180.285 323C178.885 323 177.152 323.067 175.085 323.2C173.018 323.4 170.952 323.633 168.885 323.9ZM231.755 324.2C228.821 324.2 226.488 323.533 224.755 322.2C223.088 320.867 222.088 318.967 221.755 316.5L220.955 316.2C219.688 317.533 218.355 318.8 216.955 320C215.555 321.133 214.255 322.067 213.055 322.8C211.855 323.467 210.821 323.8 209.955 323.8C207.355 323.8 205.021 323.167 202.955 321.9C200.888 320.633 199.255 318.9 198.055 316.7C196.855 314.5 196.255 312.033 196.255 309.3C196.255 307.233 196.788 305.467 197.855 304C198.988 302.467 200.388 301.467 202.055 301L221.355 296.5L221.455 294.1C221.455 291.233 220.688 289 219.155 287.4C217.688 285.8 215.588 285 212.855 285C210.988 285 208.988 285.467 206.855 286.4C204.721 287.267 202.821 288.367 201.155 289.7L200.255 289.3L198.555 283.3C200.488 282.167 202.655 281.033 205.055 279.9C207.455 278.7 209.721 277.7 211.855 276.9C214.055 276.1 215.721 275.7 216.855 275.7C220.721 275.7 223.888 276.3 226.355 277.5C228.821 278.7 230.621 280.333 231.755 282.4C232.888 284.4 233.455 286.7 233.455 289.3C233.455 290.167 233.355 291.5 233.155 293.3C232.955 295.1 232.721 297.067 232.455 299.2C232.188 301.333 231.955 303.367 231.755 305.3C231.555 307.233 231.455 308.767 231.455 309.9C231.455 311.167 231.755 312.167 232.355 312.9C233.021 313.633 233.921 314 235.055 314C235.921 314 236.788 313.8 237.655 313.4C238.588 313 239.321 312.633 239.855 312.3L241.355 314.4C240.688 315.533 239.821 316.833 238.755 318.3C237.688 319.7 236.555 320.967 235.355 322.1C234.155 323.167 232.955 323.867 231.755 324.2ZM213.655 314.3C214.655 314.3 215.821 314.033 217.155 313.5C218.555 312.9 219.788 312.2 220.855 311.4L221.155 301.9L210.455 304.9C208.855 305.367 208.055 306.467 208.055 308.2C208.055 309.933 208.555 311.4 209.555 312.6C210.621 313.733 211.988 314.3 213.655 314.3ZM294.977 324.1L295.777 317.8C297.177 317.533 298.277 317.133 299.077 316.6C299.877 316.067 300.411 315.267 300.677 314.2C301.011 313.067 301.177 311.533 301.177 309.6V290C301.177 287.667 300.811 286.167 300.077 285.5C299.344 284.767 297.744 284.4 295.277 284.4H280.477C280.477 288.933 280.411 293.5 280.277 298.1C280.211 302.7 280.177 307.267 280.177 311.8C280.177 314.933 281.544 316.5 284.277 316.5C285.944 316.5 287.377 316.467 288.577 316.4C289.844 316.333 290.477 316.3 290.477 316.3L290.877 316.8L289.877 323.3C289.877 323.3 289.344 323.267 288.277 323.2C287.211 323.2 285.877 323.167 284.277 323.1C282.744 323.1 281.177 323.067 279.577 323C277.977 323 276.644 323 275.577 323C274.177 323 272.711 323 271.177 323C269.711 323.067 268.277 323.133 266.877 323.2C265.544 323.333 264.477 323.433 263.677 323.5C262.877 323.567 262.477 323.6 262.477 323.6L263.077 317.5C265.277 317.233 266.744 316.6 267.477 315.6C268.277 314.6 268.677 312.733 268.677 310V288.4C268.611 286.867 268.144 285.833 267.277 285.3C266.411 284.7 264.711 284.367 262.177 284.3L261.777 283.7L262.577 278.6L268.677 277.6C268.677 271.733 269.744 266.667 271.877 262.4C274.011 258.067 277.077 254.733 281.077 252.4C285.077 250 289.911 248.8 295.577 248.8C297.844 248.8 300.011 249.033 302.077 249.5C304.211 249.9 306.477 250.633 308.877 251.7L309.277 253.2C309.277 253.2 309.111 253.667 308.777 254.6C308.444 255.467 307.977 256.633 307.377 258.1C306.844 259.567 306.244 261.2 305.577 263L304.377 263.3C304.377 263.3 304.077 263.033 303.477 262.5C302.877 261.9 302.011 261.233 300.877 260.5C299.744 259.767 298.411 259.133 296.877 258.6C295.411 258 293.777 257.7 291.977 257.7C289.244 257.7 287.044 258.233 285.377 259.3C283.777 260.3 282.577 261.967 281.777 264.3C281.044 266.567 280.677 269.6 280.677 273.4L280.577 277.8C285.711 277.8 289.911 277.8 293.177 277.8C296.444 277.733 299.211 277.633 301.477 277.5C303.744 277.3 305.844 277.067 307.777 276.8C309.711 276.533 311.844 276.167 314.177 275.7L315.077 277.3C314.744 278.033 314.411 279.467 314.077 281.6C313.811 283.667 313.577 286.267 313.377 289.4C313.177 292.533 313.011 296.067 312.877 300C312.744 303.933 312.677 308.1 312.677 312.5C312.677 314.1 312.911 315.233 313.377 315.9C313.844 316.567 314.644 316.9 315.777 316.9C316.311 316.9 316.911 316.867 317.577 316.8C318.311 316.733 318.677 316.7 318.677 316.7L318.977 317.2L317.977 323.3C317.977 323.3 317.611 323.267 316.877 323.2C316.144 323.2 315.177 323.167 313.977 323.1C312.844 323.1 311.644 323.067 310.377 323C309.177 323 308.044 323 306.977 323C305.377 323 303.644 323.1 301.777 323.3C299.911 323.5 298.311 323.667 296.977 323.8C295.644 324 294.977 324.1 294.977 324.1ZM353.189 317.6C354.856 317.267 356.022 316.667 356.689 315.8C357.422 314.867 357.822 313.6 357.889 312L358.189 294.7C358.189 291.767 357.656 289.6 356.589 288.2C355.522 286.733 353.889 286 351.689 286C350.622 286 349.489 286.233 348.289 286.7C347.156 287.1 346.122 287.6 345.189 288.2C344.256 288.8 343.489 289.333 342.889 289.8C342.822 291.6 342.722 293.633 342.589 295.9C342.456 298.167 342.322 300.433 342.189 302.7C342.122 304.9 342.056 306.867 341.989 308.6C341.922 310.333 341.889 311.567 341.889 312.3C341.889 314.033 342.122 315.233 342.589 315.9C343.056 316.5 343.822 316.8 344.889 316.8C345.356 316.8 345.922 316.8 346.589 316.8C347.256 316.733 347.589 316.7 347.589 316.7L347.789 317.1L346.789 323.3C346.789 323.3 346.189 323.267 344.989 323.2C343.789 323.133 342.356 323.067 340.689 323C339.089 323 337.622 323 336.289 323C334.556 323 332.756 323.033 330.889 323.1C329.089 323.233 327.556 323.333 326.289 323.4C325.089 323.533 324.489 323.6 324.489 323.6L325.289 317.4C327.222 317.133 328.556 316.6 329.289 315.8C330.089 315 330.489 313.667 330.489 311.8V290.6C330.489 288.333 330.122 286.767 329.389 285.9C328.722 285.033 327.456 284.6 325.589 284.6H324.289L323.889 284.1L324.389 278.9C327.456 278.433 330.389 277.967 333.189 277.5C335.989 276.967 338.289 276.533 340.089 276.2C341.889 275.8 342.789 275.6 342.789 275.6L343.589 276.6C343.589 276.6 343.422 277.333 343.089 278.8C342.822 280.2 342.622 281.767 342.489 283.5L342.889 283.9C343.689 283.233 344.656 282.433 345.789 281.5C346.989 280.567 348.222 279.667 349.489 278.8C350.822 277.933 352.056 277.2 353.189 276.6C354.322 276 355.222 275.7 355.889 275.7C360.622 275.7 364.289 276.833 366.889 279.1C369.556 281.367 370.889 284.533 370.889 288.6C370.889 289.6 370.789 291.133 370.589 293.2C370.389 295.267 370.156 297.533 369.889 300C369.689 302.467 369.489 304.8 369.289 307C369.156 309.2 369.089 310.933 369.089 312.2C369.089 313.867 369.322 315.1 369.789 315.9C370.256 316.633 371.056 317 372.189 317C372.789 317 373.456 316.967 374.189 316.9C374.922 316.833 375.289 316.8 375.289 316.8L375.489 317.2L374.589 323.3C374.589 323.3 374.189 323.267 373.389 323.2C372.656 323.2 371.722 323.167 370.589 323.1C369.456 323.1 368.289 323.067 367.089 323C365.889 323 364.789 323 363.789 323C362.789 323 361.656 323.033 360.389 323.1C359.189 323.233 357.989 323.333 356.789 323.4C355.589 323.467 354.589 323.533 353.789 323.6C353.056 323.733 352.689 323.8 352.689 323.8L353.189 317.6ZM93.9 426.2C87.9667 426.2 84.6333 423.8 83.9 419L83.3 418.8C80.1 421.067 77.5 422.8 75.5 424C73.5667 425.2 72.2667 425.8 71.6 425.8C67.7333 425.8 64.3667 424.933 61.5 423.2C58.7 421.4 56.5 418.867 54.9 415.6C53.3667 412.267 52.6 408.367 52.6 403.9C52.6 398.9 53.6667 394.467 55.8 390.6C58 386.667 61 383.567 64.8 381.3C68.6 379.033 72.9333 377.9 77.8 377.9C78.6667 377.9 79.5 377.933 80.3 378C81.1667 378 82.0667 378.067 83 378.2V365.3C83 363.233 82.6667 361.8 82 361C81.4 360.133 80.3333 359.7 78.8 359.7C78.3333 359.7 77.8 359.767 77.2 359.9C76.6667 359.967 76.4 360 76.4 360L77 354.1C79.3333 353.833 81.6667 353.5 84 353.1C86.3333 352.7 88.4333 352.333 90.3 352C92.2333 351.6 93.7667 351.3 94.9 351.1C96.1 350.9 96.7 350.8 96.7 350.8L97.6 352.5C97.2667 353.033 96.9333 354.467 96.6 356.8C96.2667 359.133 95.9667 362.2 95.7 366C95.5 369.733 95.3 374.033 95.1 378.9C94.9 383.767 94.7333 389 94.6 394.6C94.5333 400.133 94.5 405.9 94.5 411.9C94.5 413.167 94.7667 414.167 95.3 414.9C95.9 415.633 96.7 416 97.7 416C98.5 416 99.2333 415.867 99.9 415.6C100.633 415.267 101.2 414.967 101.6 414.7C102.067 414.433 102.3 414.3 102.3 414.3L103.9 416.4C103.9 416.4 103.633 416.8 103.1 417.6C102.567 418.4 101.833 419.4 100.9 420.6C100.033 421.733 99 422.833 97.8 423.9C96.6 424.967 95.3 425.733 93.9 426.2ZM75.3 416.6C76.2333 416.6 77.1333 416.433 78 416.1C78.9333 415.7 79.7667 415.3 80.5 414.9C81.2333 414.433 81.8333 414.033 82.3 413.7C82.7667 413.367 83 413.2 83 413.2V387.9C83 387.9 82.3 387.633 80.9 387.1C79.5667 386.5 77.8 386.2 75.6 386.2C72.3333 386.2 69.8 387.433 68 389.9C66.2 392.3 65.3 395.733 65.3 400.2C65.3 403.533 65.7 406.433 66.5 408.9C67.3667 411.3 68.5333 413.2 70 414.6C71.5333 415.933 73.3 416.6 75.3 416.6ZM111.211 391.3C111.211 389.633 110.944 388.4 110.411 387.6C109.878 386.8 109.011 386.4 107.811 386.4C107.211 386.4 106.644 386.467 106.111 386.6C105.578 386.667 105.311 386.7 105.311 386.7L105.911 380.9C107.978 380.633 110.044 380.333 112.111 380C114.244 379.6 116.211 379.233 118.011 378.9C119.811 378.5 121.244 378.2 122.311 378C123.444 377.8 124.011 377.7 124.011 377.7L124.911 379.3C124.511 380.167 124.144 381.567 123.811 383.5C123.544 385.433 123.278 387.733 123.011 390.4C122.744 393 122.544 395.8 122.411 398.8C122.278 401.733 122.211 404.7 122.211 407.7C122.211 413.1 124.311 415.8 128.511 415.8C130.044 415.8 131.544 415.4 133.011 414.6C134.544 413.733 135.944 412.867 137.211 412V391.4C137.211 389.467 136.911 388.2 136.311 387.6C135.778 386.933 134.644 386.567 132.911 386.5C132.644 386.5 132.278 386.533 131.811 386.6C131.411 386.6 131.178 386.6 131.111 386.6L131.911 380.9C134.111 380.633 136.278 380.333 138.411 380C140.611 379.6 142.611 379.267 144.411 379C146.211 378.667 147.678 378.4 148.811 378.2C149.944 378 150.511 377.9 150.511 377.9L151.411 379.5C150.944 380.5 150.511 382.633 150.111 385.9C149.711 389.1 149.378 392.967 149.111 397.5C148.844 402.033 148.711 406.833 148.711 411.9C148.711 413.167 149.011 414.167 149.611 414.9C150.278 415.633 151.178 416 152.311 416C153.111 416 153.878 415.867 154.611 415.6C155.344 415.267 155.944 414.967 156.411 414.7C156.878 414.433 157.111 414.3 157.111 414.3L158.611 416.3C158.611 416.3 158.311 416.767 157.711 417.7C157.111 418.567 156.278 419.633 155.211 420.9C154.211 422.1 153.111 423.233 151.911 424.3C150.711 425.3 149.511 425.933 148.311 426.2C142.178 426.2 138.778 423.633 138.111 418.5L137.311 418.1C134.711 420.5 132.378 422.433 130.311 423.9C128.311 425.367 126.911 426.1 126.111 426.1C121.044 426.1 117.178 425.033 114.511 422.9C111.844 420.767 110.511 417.667 110.511 413.6L111.211 391.3ZM207.584 419.6C209.184 419.267 210.317 418.667 210.984 417.8C211.717 416.867 212.117 415.6 212.184 414L212.484 396.7C212.484 393.767 211.95 391.6 210.884 390.2C209.817 388.733 208.184 388 205.984 388C204.917 388 203.784 388.233 202.584 388.7C201.45 389.167 200.384 389.7 199.384 390.3C198.45 390.9 197.717 391.4 197.184 391.8C197.05 393.6 196.917 395.633 196.784 397.9C196.717 400.167 196.617 402.433 196.484 404.7C196.417 406.9 196.35 408.867 196.284 410.6C196.217 412.333 196.184 413.567 196.184 414.3C196.184 416.033 196.417 417.233 196.884 417.9C197.35 418.5 198.117 418.8 199.184 418.8C199.65 418.8 200.217 418.8 200.884 418.8C201.55 418.733 201.884 418.7 201.884 418.7L202.084 419.1L201.084 425.3C201.084 425.3 200.484 425.267 199.284 425.2C198.084 425.133 196.65 425.067 194.984 425C193.384 425 191.917 425 190.584 425C188.85 425 187.05 425 185.184 425C183.384 425.067 181.85 425.133 180.584 425.2C179.317 425.267 178.684 425.3 178.684 425.3L179.584 419.2C181.517 419 182.85 418.533 183.584 417.8C184.384 417 184.784 415.667 184.784 413.8V392.6C184.784 390.333 184.417 388.767 183.684 387.9C183.017 387.033 181.75 386.6 179.884 386.6H178.584L178.184 386.1L178.684 380.9C181.75 380.433 184.65 379.967 187.384 379.5C190.184 378.967 192.484 378.533 194.284 378.2C196.15 377.8 197.084 377.6 197.084 377.6L197.884 378.6C197.884 378.6 197.717 379.333 197.384 380.8C197.117 382.2 196.917 383.767 196.784 385.5L197.084 385.8C197.884 385.133 198.884 384.367 200.084 383.5C201.35 382.567 202.617 381.667 203.884 380.8C205.217 379.867 206.45 379.133 207.584 378.6C208.717 378 209.584 377.7 210.184 377.7C213.917 377.7 216.984 378.4 219.384 379.8C221.784 381.2 223.417 383.267 224.284 386C225.017 385.4 225.984 384.633 227.184 383.7C228.384 382.767 229.65 381.867 230.984 381C232.317 380.067 233.584 379.3 234.784 378.7C235.984 378.033 236.917 377.7 237.584 377.7C242.384 377.7 246.084 378.867 248.684 381.2C251.35 383.467 252.684 386.6 252.684 390.6C252.684 391.6 252.584 393.133 252.384 395.2C252.184 397.267 251.95 399.533 251.684 402C251.484 404.467 251.284 406.8 251.084 409C250.884 411.2 250.784 412.933 250.784 414.2C250.784 416 251.017 417.267 251.484 418C252.017 418.667 252.85 419 253.984 419C254.584 419 255.25 418.967 255.984 418.9C256.717 418.833 257.084 418.8 257.084 418.8L257.284 419.2L256.284 425.3C256.284 425.3 255.884 425.267 255.084 425.2C254.35 425.2 253.417 425.167 252.284 425.1C251.15 425.1 249.95 425.067 248.684 425C247.484 425 246.384 425 245.384 425C244.45 425 243.35 425.033 242.084 425.1C240.884 425.167 239.717 425.2 238.584 425.2C237.45 425.267 236.484 425.333 235.684 425.4C234.95 425.467 234.584 425.5 234.584 425.5L235.284 419.3C236.817 419.033 237.917 418.533 238.584 417.8C239.25 417 239.584 415.733 239.584 414L239.884 396.7C239.95 393.767 239.45 391.6 238.384 390.2C237.317 388.733 235.65 388 233.384 388C232.317 388 231.217 388.2 230.084 388.6C229.017 389 228.017 389.5 227.084 390.1C226.15 390.7 225.384 391.233 224.784 391.7L223.484 414.2C223.484 415.867 223.717 417.1 224.184 417.9C224.65 418.633 225.45 419 226.584 419C227.117 419 227.717 418.967 228.384 418.9C229.05 418.833 229.384 418.8 229.384 418.8L229.584 419.2L228.584 425.3C228.584 425.3 228.217 425.267 227.484 425.2C226.75 425.2 225.817 425.167 224.684 425.1C223.617 425.1 222.484 425.067 221.284 425C220.084 425 219.017 425 218.084 425C217.084 425 215.95 425.033 214.684 425.1C213.484 425.233 212.284 425.333 211.084 425.4C209.884 425.467 208.884 425.533 208.084 425.6C207.284 425.733 206.884 425.8 206.884 425.8L207.584 419.6ZM283.773 426.2C279.506 426.2 275.806 425.267 272.673 423.4C269.539 421.533 267.073 418.867 265.273 415.4C263.539 411.933 262.673 407.9 262.673 403.3C262.673 398.233 263.673 393.8 265.673 390C267.739 386.133 270.573 383.133 274.173 381C277.839 378.8 282.039 377.7 286.773 377.7C291.106 377.7 294.839 378.633 297.973 380.5C301.106 382.367 303.506 385 305.173 388.4C306.906 391.8 307.773 395.833 307.773 400.5C307.773 405.567 306.773 410.033 304.773 413.9C302.773 417.767 299.939 420.8 296.273 423C292.673 425.133 288.506 426.2 283.773 426.2ZM285.773 418.7C288.639 418.7 290.806 417.567 292.273 415.3C293.806 412.967 294.573 409.567 294.573 405.1C294.573 400.9 294.173 397.4 293.373 394.6C292.573 391.733 291.406 389.6 289.873 388.2C288.406 386.8 286.606 386.1 284.473 386.1C281.606 386.1 279.406 387.233 277.873 389.5C276.406 391.767 275.673 395.167 275.673 399.7C275.673 403.9 276.073 407.433 276.873 410.3C277.673 413.1 278.806 415.2 280.273 416.6C281.806 418 283.639 418.7 285.773 418.7ZM342.935 419.6C344.602 419.267 345.768 418.667 346.435 417.8C347.168 416.867 347.568 415.6 347.635 414L347.935 396.7C347.935 393.767 347.402 391.6 346.335 390.2C345.268 388.733 343.635 388 341.435 388C340.368 388 339.235 388.233 338.035 388.7C336.902 389.1 335.868 389.6 334.935 390.2C334.002 390.8 333.235 391.333 332.635 391.8C332.568 393.6 332.468 395.633 332.335 397.9C332.202 400.167 332.068 402.433 331.935 404.7C331.868 406.9 331.802 408.867 331.735 410.6C331.668 412.333 331.635 413.567 331.635 414.3C331.635 416.033 331.868 417.233 332.335 417.9C332.802 418.5 333.568 418.8 334.635 418.8C335.102 418.8 335.668 418.8 336.335 418.8C337.002 418.733 337.335 418.7 337.335 418.7L337.535 419.1L336.535 425.3C336.535 425.3 335.935 425.267 334.735 425.2C333.535 425.133 332.102 425.067 330.435 425C328.835 425 327.368 425 326.035 425C324.302 425 322.502 425.033 320.635 425.1C318.835 425.233 317.302 425.333 316.035 425.4C314.835 425.533 314.235 425.6 314.235 425.6L315.035 419.4C316.968 419.133 318.302 418.6 319.035 417.8C319.835 417 320.235 415.667 320.235 413.8V392.6C320.235 390.333 319.868 388.767 319.135 387.9C318.468 387.033 317.202 386.6 315.335 386.6H314.035L313.635 386.1L314.135 380.9C317.202 380.433 320.135 379.967 322.935 379.5C325.735 378.967 328.035 378.533 329.835 378.2C331.635 377.8 332.535 377.6 332.535 377.6L333.335 378.6C333.335 378.6 333.168 379.333 332.835 380.8C332.568 382.2 332.368 383.767 332.235 385.5L332.635 385.9C333.435 385.233 334.402 384.433 335.535 383.5C336.735 382.567 337.968 381.667 339.235 380.8C340.568 379.933 341.802 379.2 342.935 378.6C344.068 378 344.968 377.7 345.635 377.7C350.368 377.7 354.035 378.833 356.635 381.1C359.302 383.367 360.635 386.533 360.635 390.6C360.635 391.6 360.535 393.133 360.335 395.2C360.135 397.267 359.902 399.533 359.635 402C359.435 404.467 359.235 406.8 359.035 409C358.902 411.2 358.835 412.933 358.835 414.2C358.835 415.867 359.068 417.1 359.535 417.9C360.002 418.633 360.802 419 361.935 419C362.535 419 363.202 418.967 363.935 418.9C364.668 418.833 365.035 418.8 365.035 418.8L365.235 419.2L364.335 425.3C364.335 425.3 363.935 425.267 363.135 425.2C362.402 425.2 361.468 425.167 360.335 425.1C359.202 425.1 358.035 425.067 356.835 425C355.635 425 354.535 425 353.535 425C352.535 425 351.402 425.033 350.135 425.1C348.935 425.233 347.735 425.333 346.535 425.4C345.335 425.467 344.335 425.533 343.535 425.6C342.802 425.733 342.435 425.8 342.435 425.8L342.935 419.6ZM411.088 426.2C405.154 426.2 401.821 423.8 401.088 419L400.488 418.8C397.288 421.067 394.688 422.8 392.688 424C390.754 425.2 389.454 425.8 388.788 425.8C384.921 425.8 381.554 424.933 378.688 423.2C375.888 421.4 373.688 418.867 372.088 415.6C370.554 412.267 369.788 408.367 369.788 403.9C369.788 398.9 370.854 394.467 372.988 390.6C375.188 386.667 378.188 383.567 381.988 381.3C385.788 379.033 390.121 377.9 394.988 377.9C395.854 377.9 396.688 377.933 397.488 378C398.354 378 399.254 378.067 400.188 378.2V365.3C400.188 363.233 399.854 361.8 399.188 361C398.588 360.133 397.521 359.7 395.988 359.7C395.521 359.7 394.988 359.767 394.388 359.9C393.854 359.967 393.587 360 393.587 360L394.188 354.1C396.521 353.833 398.854 353.5 401.188 353.1C403.521 352.7 405.621 352.333 407.488 352C409.421 351.6 410.954 351.3 412.088 351.1C413.288 350.9 413.888 350.8 413.888 350.8L414.788 352.5C414.454 353.033 414.121 354.467 413.788 356.8C413.454 359.133 413.154 362.2 412.888 366C412.688 369.733 412.488 374.033 412.288 378.9C412.088 383.767 411.921 389 411.788 394.6C411.721 400.133 411.688 405.9 411.688 411.9C411.688 413.167 411.954 414.167 412.488 414.9C413.088 415.633 413.888 416 414.888 416C415.688 416 416.421 415.867 417.088 415.6C417.821 415.267 418.388 414.967 418.788 414.7C419.254 414.433 419.488 414.3 419.488 414.3L421.088 416.4C421.088 416.4 420.821 416.8 420.288 417.6C419.754 418.4 419.021 419.4 418.088 420.6C417.221 421.733 416.188 422.833 414.988 423.9C413.788 424.967 412.488 425.733 411.088 426.2ZM392.488 416.6C393.421 416.6 394.321 416.433 395.188 416.1C396.121 415.7 396.954 415.3 397.688 414.9C398.421 414.433 399.021 414.033 399.488 413.7C399.954 413.367 400.188 413.2 400.188 413.2V387.9C400.188 387.9 399.488 387.633 398.088 387.1C396.754 386.5 394.988 386.2 392.788 386.2C389.521 386.2 386.988 387.433 385.188 389.9C383.388 392.3 382.488 395.733 382.488 400.2C382.488 403.533 382.888 406.433 383.688 408.9C384.554 411.3 385.721 413.2 387.188 414.6C388.721 415.933 390.488 416.6 392.488 416.6ZM446.098 426.2C441.432 426.2 437.398 425.267 433.998 423.4C430.665 421.533 428.065 418.867 426.198 415.4C424.398 411.933 423.498 407.867 423.498 403.2C423.498 399.533 424.098 396.167 425.298 393.1C426.498 390.033 428.165 387.367 430.298 385.1C432.432 382.767 434.932 380.967 437.798 379.7C440.665 378.367 443.765 377.7 447.098 377.7C458.298 377.7 463.898 383.367 463.898 394.7C463.898 395.7 463.798 396.733 463.598 397.8C463.465 398.867 463.332 399.7 463.198 400.3L461.998 401.5H436.098C436.232 406.1 437.298 409.7 439.298 412.3C441.365 414.833 444.232 416.233 447.898 416.5C451.565 416.767 455.865 415.767 460.798 413.5L461.498 413.9L463.098 418.8C461.765 419.8 460.098 420.9 458.098 422.1C456.098 423.233 454.032 424.2 451.898 425C449.765 425.8 447.832 426.2 446.098 426.2ZM436.098 396L449.798 395.2C450.598 395.133 451.098 394.967 451.298 394.7C451.565 394.367 451.698 393.767 451.698 392.9C451.698 390.5 451.165 388.667 450.098 387.4C449.032 386.133 447.465 385.5 445.398 385.5C442.798 385.5 440.665 386.4 438.998 388.2C437.398 389.933 436.432 392.533 436.098 396ZM495.92 426.1C493.52 426.1 491.686 425.4 490.42 424C489.22 422.6 488.62 420.833 488.62 418.7C488.62 416.3 489.32 414.367 490.72 412.9C492.186 411.367 494.153 410.6 496.62 410.6C498.953 410.6 500.753 411.3 502.02 412.7C503.286 414.033 503.92 415.8 503.92 418C503.92 420.333 503.186 422.267 501.72 423.8C500.32 425.333 498.386 426.1 495.92 426.1Z" fill="black"/>
</svg>
