<svg width="681" height="420" viewBox="0 0 681 420" fill="none" xmlns="http://www.w3.org/2000/svg">
<path d="M2.4 113.35L3.45 104.2C5.85 103.6 7.55 102.85 8.55 101.95C9.65 101.05 10.3 99.8 10.5 98.2C10.8 96.5 10.95 94.4 10.95 91.9V22.3C10.95 19.7 10.7 17.8 10.2 16.6C9.8 15.4 8.9 14.65 7.5 14.35C6.1 13.95 4 13.85 1.2 14.05L0.6 13.45L1.5 5.49999C6.5 4.9 11.5 4.2 16.5 3.39999C21.6 2.59999 26.7 1.69999 31.8 0.699993L32.85 3.54999C32.35 4.94999 31.85 7.49999 31.35 11.2C30.85 14.8 30.4 19.45 30 25.15C29.6 30.85 29.25 37.4 28.95 44.8C28.65 52.1 28.45 60.1 28.35 68.8C28.25 77.5 28.2 86.65 28.2 96.25C28.2 98.65 28.5 100.4 29.1 101.5C29.8 102.5 31 103 32.7 103L37.65 102.7L38.1 103.6L36.45 112.45C33.85 112.35 30.95 112.25 27.75 112.15C24.55 112.05 21.8 112 19.5 112C17.4 112 14.8 112.1 11.7 112.3C8.6 112.6 5.5 112.95 2.4 113.35ZM50.0543 54.85L43.9043 51.7L43.4543 49.3C45.5543 47.2 47.2543 44.8 48.5543 42.1C49.8543 39.4 50.5043 36.95 50.5043 34.75C50.5043 32.35 49.8043 30.1 48.4043 28C47.0043 25.9 45.2043 24.3 43.0043 23.2L42.8543 21.1C47.2543 16.1 51.5043 13.6 55.6043 13.6C58.6043 13.6 61.1043 15 63.1043 17.8C65.2043 20.5 66.2543 23.9 66.2543 28C66.2543 32 64.8043 36.4 61.9043 41.2C59.1043 46 55.1543 50.55 50.0543 54.85ZM128.931 113.8C124.531 113.8 121.031 112.8 118.431 110.8C115.931 108.8 114.431 105.95 113.931 102.25L112.731 101.8C110.831 103.8 108.831 105.7 106.731 107.5C104.631 109.2 102.681 110.6 100.881 111.7C99.0809 112.7 97.5309 113.2 96.2309 113.2C92.3309 113.2 88.8309 112.25 85.7309 110.35C82.6309 108.45 80.1809 105.85 78.3809 102.55C76.5809 99.25 75.6809 95.55 75.6809 91.45C75.6809 88.35 76.4809 85.7 78.0809 83.5C79.7809 81.2 81.8809 79.7 84.3809 79L113.331 72.25L113.481 68.65C113.481 64.35 112.331 61 110.031 58.6C107.831 56.2 104.681 55 100.581 55C97.7809 55 94.7809 55.7 91.5809 57.1C88.3809 58.4 85.5309 60.05 83.0309 62.05L81.6809 61.45L79.1309 52.45C82.0309 50.75 85.2809 49.05 88.8809 47.35C92.4809 45.55 95.8809 44.05 99.0809 42.85C102.381 41.65 104.881 41.05 106.581 41.05C112.381 41.05 117.131 41.95 120.831 43.75C124.531 45.55 127.231 48 128.931 51.1C130.631 54.1 131.481 57.55 131.481 61.45C131.481 62.75 131.331 64.75 131.031 67.45C130.731 70.15 130.381 73.1 129.981 76.3C129.581 79.5 129.231 82.55 128.931 85.45C128.631 88.35 128.481 90.65 128.481 92.35C128.481 94.25 128.931 95.75 129.831 96.85C130.831 97.95 132.181 98.5 133.881 98.5C135.181 98.5 136.481 98.2 137.781 97.6C139.181 97 140.281 96.45 141.081 95.95L143.331 99.1C142.331 100.8 141.031 102.75 139.431 104.95C137.831 107.05 136.131 108.95 134.331 110.65C132.531 112.25 130.731 113.3 128.931 113.8ZM101.781 98.95C103.281 98.95 105.031 98.55 107.031 97.75C109.131 96.85 110.981 95.8 112.581 94.6L113.031 80.35L96.9809 84.85C94.5809 85.55 93.3809 87.2 93.3809 89.8C93.3809 92.4 94.1309 94.6 95.6309 96.4C97.2309 98.1 99.2809 98.95 101.781 98.95ZM177.291 148.3C171.991 148.3 167.341 147.4 163.341 145.6C159.441 143.9 156.391 141.45 154.191 138.25C151.991 135.15 150.891 131.45 150.891 127.15C152.091 125.85 154.041 124.2 156.741 122.2C159.541 120.2 162.591 118.2 165.891 116.2V115.15C161.091 114.35 157.391 112.65 154.791 110.05C152.191 107.35 150.741 103.95 150.441 99.85C152.241 98.05 154.141 96.3 156.141 94.6C158.241 92.9 160.441 91.3 162.741 89.8V86.8L172.941 89.8C170.741 91.2 169.091 92.45 167.991 93.55C166.991 94.65 166.491 95.75 166.491 96.85C166.491 98.65 167.691 99.95 170.091 100.75C172.591 101.55 175.741 102.15 179.541 102.55C183.441 102.95 187.541 103.4 191.841 103.9C196.141 104.4 200.191 105.2 203.991 106.3C207.791 107.4 210.891 109.05 213.291 111.25C215.791 113.45 217.041 116.5 217.041 120.4C217.041 123.9 215.941 127.3 213.741 130.6C211.541 134 208.541 137 204.741 139.6C201.041 142.3 196.791 144.4 191.991 145.9C187.291 147.5 182.391 148.3 177.291 148.3ZM182.991 137.2C186.291 137.2 189.241 136.7 191.841 135.7C194.441 134.8 196.491 133.5 197.991 131.8C199.591 130.1 200.391 128.2 200.391 126.1C200.391 124.5 199.741 123.2 198.441 122.2C197.241 121.3 194.841 120.45 191.241 119.65C187.641 118.85 182.291 118 175.191 117.1C173.391 118.7 171.991 120.45 170.991 122.35C169.991 124.25 169.491 126.1 169.491 127.9C169.491 130.8 170.641 133.05 172.941 134.65C175.341 136.35 178.691 137.2 182.991 137.2ZM182.541 83.05C186.141 83.05 188.891 81.8 190.791 79.3C192.791 76.8 193.791 73.2 193.791 68.5C193.791 63.3 192.641 59.25 190.341 56.35C188.041 53.45 184.891 52 180.891 52C177.291 52 174.541 53.25 172.641 55.75C170.741 58.25 169.791 61.9 169.791 66.7C169.791 71.8 170.891 75.8 173.091 78.7C175.391 81.6 178.541 83.05 182.541 83.05ZM179.841 92.95C174.141 92.95 169.141 91.95 164.841 89.95C160.541 87.85 157.191 85 154.791 81.4C152.491 77.7 151.341 73.45 151.341 68.65C151.341 63.35 152.691 58.6 155.391 54.4C158.091 50.2 161.791 46.9 166.491 44.5C171.191 42.1 176.491 40.9 182.391 40.9C185.591 40.9 188.391 41.15 190.791 41.65C193.191 42.15 195.541 42.4 197.841 42.4C199.841 42.2 202.741 41.65 206.541 40.75C210.341 39.85 214.441 38.75 218.841 37.45L219.741 38.05L217.791 49.6C215.891 49.8 213.941 50 211.941 50.2C209.941 50.3 208.191 50.4 206.691 50.5L206.091 51.4C210.091 55.6 212.091 60.55 212.091 66.25C212.091 71.35 210.691 75.9 207.891 79.9C205.091 83.9 201.241 87.1 196.341 89.5C191.541 91.8 186.041 92.95 179.841 92.95ZM257.673 113.8C250.673 113.8 244.623 112.4 239.523 109.6C234.523 106.8 230.623 102.8 227.823 97.6C225.123 92.4 223.773 86.3 223.773 79.3C223.773 73.8 224.673 68.75 226.473 64.15C228.273 59.55 230.773 55.55 233.973 52.15C237.173 48.65 240.923 45.95 245.223 44.05C249.523 42.05 254.173 41.05 259.173 41.05C275.973 41.05 284.373 49.55 284.373 66.55C284.373 68.05 284.223 69.6 283.923 71.2C283.723 72.8 283.523 74.05 283.323 74.95L281.523 76.75H242.673C242.873 83.65 244.473 89.05 247.473 92.95C250.573 96.75 254.873 98.85 260.373 99.25C265.873 99.65 272.323 98.15 279.723 94.75L280.773 95.35L283.173 102.7C281.173 104.2 278.673 105.85 275.673 107.65C272.673 109.35 269.573 110.8 266.373 112C263.173 113.2 260.273 113.8 257.673 113.8ZM242.673 68.5L263.223 67.3C264.423 67.2 265.173 66.95 265.473 66.55C265.873 66.05 266.073 65.15 266.073 63.85C266.073 60.25 265.273 57.5 263.673 55.6C262.073 53.7 259.723 52.75 256.623 52.75C252.723 52.75 249.523 54.1 247.023 56.8C244.623 59.4 243.173 63.3 242.673 68.5ZM337.01 103.9C339.51 103.4 341.26 102.5 342.26 101.2C343.36 99.8 343.96 97.9 344.06 95.5L344.51 69.55C344.51 65.15 343.71 61.9 342.11 59.8C340.51 57.6 338.06 56.5 334.76 56.5C333.16 56.5 331.46 56.85 329.66 57.55C327.96 58.15 326.41 58.9 325.01 59.8C323.61 60.7 322.46 61.5 321.56 62.2C321.46 64.9 321.31 67.95 321.11 71.35C320.91 74.75 320.71 78.15 320.51 81.55C320.41 84.85 320.31 87.8 320.21 90.4C320.11 93 320.06 94.85 320.06 95.95C320.06 98.55 320.41 100.35 321.11 101.35C321.81 102.25 322.96 102.7 324.56 102.7C325.26 102.7 326.11 102.7 327.11 102.7C328.11 102.6 328.61 102.55 328.61 102.55L328.91 103.15L327.41 112.45C327.41 112.45 326.51 112.4 324.71 112.3C322.91 112.2 320.76 112.1 318.26 112C315.86 112 313.66 112 311.66 112C309.06 112 306.36 112.05 303.56 112.15C300.86 112.35 298.56 112.5 296.66 112.6C294.86 112.8 293.96 112.9 293.96 112.9L295.16 103.6C298.06 103.2 300.06 102.4 301.16 101.2C302.36 100 302.96 98 302.96 95.2V63.4C302.96 60 302.41 57.65 301.31 56.35C300.31 55.05 298.41 54.4 295.61 54.4H293.66L293.06 53.65L293.81 45.85C298.41 45.15 302.81 44.45 307.01 43.75C311.21 42.95 314.66 42.3 317.36 41.8C320.06 41.2 321.41 40.9 321.41 40.9L322.61 42.4C322.61 42.4 322.36 43.5 321.86 45.7C321.46 47.8 321.16 50.15 320.96 52.75L321.56 53.35C322.76 52.35 324.21 51.15 325.91 49.75C327.71 48.35 329.56 47 331.46 45.7C333.46 44.4 335.31 43.3 337.01 42.4C338.71 41.5 340.06 41.05 341.06 41.05C348.16 41.05 353.66 42.75 357.56 46.15C361.56 49.55 363.56 54.3 363.56 60.4C363.56 61.9 363.41 64.2 363.11 67.3C362.81 70.4 362.46 73.8 362.06 77.5C361.76 81.2 361.46 84.7 361.16 88C360.96 91.3 360.86 93.9 360.86 95.8C360.86 98.3 361.21 100.15 361.91 101.35C362.61 102.45 363.81 103 365.51 103C366.41 103 367.41 102.95 368.51 102.85C369.61 102.75 370.16 102.7 370.16 102.7L370.46 103.3L369.11 112.45C369.11 112.45 368.51 112.4 367.31 112.3C366.21 112.3 364.81 112.25 363.11 112.15C361.41 112.15 359.66 112.1 357.86 112C356.06 112 354.41 112 352.91 112C351.41 112 349.71 112.05 347.81 112.15C346.01 112.35 344.21 112.5 342.41 112.6C340.61 112.7 339.11 112.8 337.91 112.9C336.81 113.1 336.26 113.2 336.26 113.2L337.01 103.9ZM410.289 113.8C403.489 113.8 397.589 112.4 392.589 109.6C387.689 106.8 383.889 102.85 381.189 97.75C378.589 92.55 377.289 86.4 377.289 79.3C377.289 71.8 378.839 65.2 381.939 59.5C385.039 53.8 389.339 49.3 394.839 46C400.339 42.7 406.639 41.05 413.739 41.05C417.539 41.05 420.839 41.3 423.639 41.8C426.439 42.3 428.639 42.8 430.239 43.3C431.939 43.8 432.789 44.05 432.789 44.05L433.389 45.4C433.389 45.4 433.139 46.45 432.639 48.55C432.239 50.65 431.789 53.5 431.289 57.1C430.789 60.6 430.389 64.4 430.089 68.5L420.489 69.1V64.15C420.489 60.65 419.639 58 417.939 56.2C416.339 54.4 414.039 53.5 411.039 53.5C406.439 53.5 402.889 55.2 400.389 58.6C397.889 62 396.639 66.95 396.639 73.45C396.639 81.75 398.089 88.1 400.989 92.5C403.889 96.8 407.989 98.95 413.289 98.95C416.089 98.95 418.689 98.6 421.089 97.9C423.589 97.1 425.589 96.35 427.089 95.65C428.589 94.95 429.339 94.6 429.339 94.6L430.389 95.05L432.789 102.7C432.789 102.7 432.039 103.25 430.539 104.35C429.139 105.45 427.239 106.75 424.839 108.25C422.539 109.75 420.089 111.05 417.489 112.15C414.889 113.25 412.489 113.8 410.289 113.8ZM473.591 113.8C466.591 113.8 460.541 112.4 455.441 109.6C450.441 106.8 446.541 102.8 443.741 97.6C441.041 92.4 439.691 86.3 439.691 79.3C439.691 73.8 440.591 68.75 442.391 64.15C444.191 59.55 446.691 55.55 449.891 52.15C453.091 48.65 456.841 45.95 461.141 44.05C465.441 42.05 470.091 41.05 475.091 41.05C491.891 41.05 500.291 49.55 500.291 66.55C500.291 68.05 500.141 69.6 499.841 71.2C499.641 72.8 499.441 74.05 499.241 74.95L497.441 76.75H458.591C458.791 83.65 460.391 89.05 463.391 92.95C466.491 96.75 470.791 98.85 476.291 99.25C481.791 99.65 488.241 98.15 495.641 94.75L496.691 95.35L499.091 102.7C497.091 104.2 494.591 105.85 491.591 107.65C488.591 109.35 485.491 110.8 482.291 112C479.091 113.2 476.191 113.8 473.591 113.8ZM458.591 68.5L479.141 67.3C480.341 67.2 481.091 66.95 481.391 66.55C481.791 66.05 481.991 65.15 481.991 63.85C481.991 60.25 481.191 57.5 479.591 55.6C477.991 53.7 475.641 52.75 472.541 52.75C468.641 52.75 465.441 54.1 462.941 56.8C460.541 59.4 459.091 63.3 458.591 68.5ZM65.85 266.8C56.95 266.8 51.95 263.2 50.85 256L49.95 255.7C45.15 259.1 41.25 261.7 38.25 263.5C35.35 265.3 33.4 266.2 32.4 266.2C26.6 266.2 21.55 264.9 17.25 262.3C13.05 259.6 9.75 255.8 7.35 250.9C5.05 245.9 3.9 240.05 3.9 233.35C3.9 225.85 5.5 219.2 8.7 213.4C12 207.5 16.5 202.85 22.2 199.45C27.9 196.05 34.4 194.35 41.7 194.35C43 194.35 44.25 194.4 45.45 194.5C46.75 194.5 48.1 194.6 49.5 194.8V175.45C49.5 172.35 49 170.2 48 169C47.1 167.7 45.5 167.05 43.2 167.05C42.5 167.05 41.7 167.15 40.8 167.35C40 167.45 39.6 167.5 39.6 167.5L40.5 158.65C44 158.25 47.5 157.75 51 157.15C54.5 156.55 57.65 156 60.45 155.5C63.35 154.9 65.65 154.45 67.35 154.15C69.15 153.85 70.05 153.7 70.05 153.7L71.4 156.25C70.9 157.05 70.4 159.2 69.9 162.7C69.4 166.2 68.95 170.8 68.55 176.5C68.25 182.1 67.95 188.55 67.65 195.85C67.35 203.15 67.1 211 66.9 219.4C66.8 227.7 66.75 236.35 66.75 245.35C66.75 247.25 67.15 248.75 67.95 249.85C68.85 250.95 70.05 251.5 71.55 251.5C72.75 251.5 73.85 251.3 74.85 250.9C75.95 250.4 76.8 249.95 77.4 249.55C78.1 249.15 78.45 248.95 78.45 248.95L80.85 252.1C80.85 252.1 80.45 252.7 79.65 253.9C78.85 255.1 77.75 256.6 76.35 258.4C75.05 260.1 73.5 261.75 71.7 263.35C69.9 264.95 67.95 266.1 65.85 266.8ZM37.95 252.4C39.35 252.4 40.7 252.15 42 251.65C43.4 251.05 44.65 250.45 45.75 249.85C46.85 249.15 47.75 248.55 48.45 248.05C49.15 247.55 49.5 247.3 49.5 247.3V209.35C49.5 209.35 48.45 208.95 46.35 208.15C44.35 207.25 41.7 206.8 38.4 206.8C33.5 206.8 29.7 208.65 27 212.35C24.3 215.95 22.95 221.1 22.95 227.8C22.95 232.8 23.55 237.15 24.75 240.85C26.05 244.45 27.8 247.3 30 249.4C32.3 251.4 34.95 252.4 37.95 252.4ZM118.366 266.8C111.366 266.8 105.316 265.4 100.216 262.6C95.2164 259.8 91.3164 255.8 88.5164 250.6C85.8164 245.4 84.4664 239.3 84.4664 232.3C84.4664 226.8 85.3664 221.75 87.1664 217.15C88.9664 212.55 91.4664 208.55 94.6664 205.15C97.8664 201.65 101.616 198.95 105.916 197.05C110.216 195.05 114.866 194.05 119.866 194.05C136.666 194.05 145.066 202.55 145.066 219.55C145.066 221.05 144.916 222.6 144.616 224.2C144.416 225.8 144.216 227.05 144.016 227.95L142.216 229.75H103.366C103.566 236.65 105.166 242.05 108.166 245.95C111.266 249.75 115.566 251.85 121.066 252.25C126.566 252.65 133.016 251.15 140.416 247.75L141.466 248.35L143.866 255.7C141.866 257.2 139.366 258.85 136.366 260.65C133.366 262.35 130.266 263.8 127.066 265C123.866 266.2 120.966 266.8 118.366 266.8ZM103.366 221.5L123.916 220.3C125.116 220.2 125.866 219.95 126.166 219.55C126.566 219.05 126.766 218.15 126.766 216.85C126.766 213.25 125.966 210.5 124.366 208.6C122.766 206.7 120.416 205.75 117.316 205.75C113.416 205.75 110.216 207.1 107.716 209.8C105.316 212.4 103.866 216.3 103.366 221.5ZM178.328 266.35L179.378 257.2C181.778 256.6 183.478 255.85 184.478 254.95C185.578 254.05 186.228 252.8 186.428 251.2C186.728 249.5 186.878 247.4 186.878 244.9V175.3C186.878 172.7 186.628 170.8 186.128 169.6C185.728 168.4 184.828 167.65 183.428 167.35C182.028 166.95 179.928 166.85 177.128 167.05L176.528 166.45L177.428 158.5C182.428 157.9 187.428 157.2 192.428 156.4C197.528 155.6 202.628 154.7 207.728 153.7L208.778 156.55C208.278 157.95 207.778 160.5 207.278 164.2C206.778 167.8 206.328 172.45 205.928 178.15C205.528 183.85 205.178 190.4 204.878 197.8C204.578 205.1 204.378 213.1 204.278 221.8C204.178 230.5 204.128 239.65 204.128 249.25C204.128 251.65 204.428 253.4 205.028 254.5C205.728 255.5 206.928 256 208.628 256L213.578 255.7L214.028 256.6L212.378 265.45C209.778 265.35 206.878 265.25 203.678 265.15C200.478 265.05 197.728 265 195.428 265C193.328 265 190.728 265.1 187.628 265.3C184.528 265.6 181.428 265.95 178.328 266.35ZM272.632 266.8C268.232 266.8 264.732 265.8 262.132 263.8C259.632 261.8 258.132 258.95 257.632 255.25L256.432 254.8C254.532 256.8 252.532 258.7 250.432 260.5C248.332 262.2 246.382 263.6 244.582 264.7C242.782 265.7 241.232 266.2 239.932 266.2C236.032 266.2 232.532 265.25 229.432 263.35C226.332 261.45 223.882 258.85 222.082 255.55C220.282 252.25 219.382 248.55 219.382 244.45C219.382 241.35 220.182 238.7 221.782 236.5C223.482 234.2 225.582 232.7 228.082 232L257.032 225.25L257.182 221.65C257.182 217.35 256.032 214 253.732 211.6C251.532 209.2 248.382 208 244.282 208C241.482 208 238.482 208.7 235.282 210.1C232.082 211.4 229.232 213.05 226.732 215.05L225.382 214.45L222.832 205.45C225.732 203.75 228.982 202.05 232.582 200.35C236.182 198.55 239.582 197.05 242.782 195.85C246.082 194.65 248.582 194.05 250.282 194.05C256.082 194.05 260.832 194.95 264.532 196.75C268.232 198.55 270.932 201 272.632 204.1C274.332 207.1 275.182 210.55 275.182 214.45C275.182 215.75 275.032 217.75 274.732 220.45C274.432 223.15 274.082 226.1 273.682 229.3C273.282 232.5 272.932 235.55 272.632 238.45C272.332 241.35 272.182 243.65 272.182 245.35C272.182 247.25 272.632 248.75 273.532 249.85C274.532 250.95 275.882 251.5 277.582 251.5C278.882 251.5 280.182 251.2 281.482 250.6C282.882 250 283.982 249.45 284.782 248.95L287.032 252.1C286.032 253.8 284.732 255.75 283.132 257.95C281.532 260.05 279.832 261.95 278.032 263.65C276.232 265.25 274.432 266.3 272.632 266.8ZM245.482 251.95C246.982 251.95 248.732 251.55 250.732 250.75C252.832 249.85 254.682 248.8 256.282 247.6L256.732 233.35L240.682 237.85C238.282 238.55 237.082 240.2 237.082 242.8C237.082 245.4 237.832 247.6 239.332 249.4C240.932 251.1 242.982 251.95 245.482 251.95ZM367.466 266.65L368.666 257.2C370.766 256.8 372.416 256.2 373.616 255.4C374.816 254.6 375.616 253.4 376.016 251.8C376.516 250.1 376.766 247.8 376.766 244.9V215.5C376.766 212 376.216 209.75 375.116 208.75C374.016 207.65 371.616 207.1 367.916 207.1H345.716C345.716 213.9 345.616 220.75 345.416 227.65C345.316 234.55 345.266 241.4 345.266 248.2C345.266 252.9 347.316 255.25 351.416 255.25C353.916 255.25 356.066 255.2 357.866 255.1C359.766 255 360.716 254.95 360.716 254.95L361.316 255.7L359.816 265.45C359.816 265.45 359.016 265.4 357.416 265.3C355.816 265.3 353.816 265.25 351.416 265.15C349.116 265.15 346.766 265.1 344.366 265C341.966 265 339.966 265 338.366 265C336.266 265 334.066 265 331.766 265C329.566 265.1 327.416 265.2 325.316 265.3C323.316 265.5 321.716 265.65 320.516 265.75C319.316 265.85 318.716 265.9 318.716 265.9L319.616 256.75C322.916 256.35 325.116 255.4 326.216 253.9C327.416 252.4 328.016 249.6 328.016 245.5V213.1C327.916 210.8 327.216 209.25 325.916 208.45C324.616 207.55 322.066 207.05 318.266 206.95L317.666 206.05L318.866 198.4L328.016 196.9C328.016 188.1 329.616 180.5 332.816 174.1C336.016 167.6 340.616 162.6 346.616 159.1C352.616 155.5 359.866 153.7 368.366 153.7C371.766 153.7 375.016 154.05 378.116 154.75C381.316 155.35 384.716 156.45 388.316 158.05L388.916 160.3C388.916 160.3 388.666 161 388.166 162.4C387.666 163.7 386.966 165.45 386.066 167.65C385.266 169.85 384.366 172.3 383.366 175L381.566 175.45C381.566 175.45 381.116 175.05 380.216 174.25C379.316 173.35 378.016 172.35 376.316 171.25C374.616 170.15 372.616 169.2 370.316 168.4C368.116 167.5 365.666 167.05 362.966 167.05C358.866 167.05 355.566 167.85 353.066 169.45C350.666 170.95 348.866 173.45 347.666 176.95C346.566 180.35 346.016 184.9 346.016 190.6L345.866 197.2C353.566 197.2 359.866 197.2 364.766 197.2C369.666 197.1 373.816 196.95 377.216 196.75C380.616 196.45 383.766 196.1 386.666 195.7C389.566 195.3 392.766 194.75 396.266 194.05L397.616 196.45C397.116 197.55 396.616 199.7 396.116 202.9C395.716 206 395.366 209.9 395.066 214.6C394.766 219.3 394.516 224.6 394.316 230.5C394.116 236.4 394.016 242.65 394.016 249.25C394.016 251.65 394.366 253.35 395.066 254.35C395.766 255.35 396.966 255.85 398.666 255.85C399.466 255.85 400.366 255.8 401.366 255.7C402.466 255.6 403.016 255.55 403.016 255.55L403.466 256.3L401.966 265.45C401.966 265.45 401.416 265.4 400.316 265.3C399.216 265.3 397.766 265.25 395.966 265.15C394.266 265.15 392.466 265.1 390.566 265C388.766 265 387.066 265 385.466 265C383.066 265 380.466 265.15 377.666 265.45C374.866 265.75 372.466 266 370.466 266.2C368.466 266.5 367.466 266.65 367.466 266.65ZM454.784 256.9C457.284 256.4 459.034 255.5 460.034 254.2C461.134 252.8 461.734 250.9 461.834 248.5L462.284 222.55C462.284 218.15 461.484 214.9 459.884 212.8C458.284 210.6 455.834 209.5 452.534 209.5C450.934 209.5 449.234 209.85 447.434 210.55C445.734 211.15 444.184 211.9 442.784 212.8C441.384 213.7 440.234 214.5 439.334 215.2C439.234 217.9 439.084 220.95 438.884 224.35C438.684 227.75 438.484 231.15 438.284 234.55C438.184 237.85 438.084 240.8 437.984 243.4C437.884 246 437.834 247.85 437.834 248.95C437.834 251.55 438.184 253.35 438.884 254.35C439.584 255.25 440.734 255.7 442.334 255.7C443.034 255.7 443.884 255.7 444.884 255.7C445.884 255.6 446.384 255.55 446.384 255.55L446.684 256.15L445.184 265.45C445.184 265.45 444.284 265.4 442.484 265.3C440.684 265.2 438.534 265.1 436.034 265C433.634 265 431.434 265 429.434 265C426.834 265 424.134 265.05 421.334 265.15C418.634 265.35 416.334 265.5 414.434 265.6C412.634 265.8 411.734 265.9 411.734 265.9L412.934 256.6C415.834 256.2 417.834 255.4 418.934 254.2C420.134 253 420.734 251 420.734 248.2V216.4C420.734 213 420.184 210.65 419.084 209.35C418.084 208.05 416.184 207.4 413.384 207.4H411.434L410.834 206.65L411.584 198.85C416.184 198.15 420.584 197.45 424.784 196.75C428.984 195.95 432.434 195.3 435.134 194.8C437.834 194.2 439.184 193.9 439.184 193.9L440.384 195.4C440.384 195.4 440.134 196.5 439.634 198.7C439.234 200.8 438.934 203.15 438.734 205.75L439.334 206.35C440.534 205.35 441.984 204.15 443.684 202.75C445.484 201.35 447.334 200 449.234 198.7C451.234 197.4 453.084 196.3 454.784 195.4C456.484 194.5 457.834 194.05 458.834 194.05C465.934 194.05 471.434 195.75 475.334 199.15C479.334 202.55 481.334 207.3 481.334 213.4C481.334 214.9 481.184 217.2 480.884 220.3C480.584 223.4 480.234 226.8 479.834 230.5C479.534 234.2 479.234 237.7 478.934 241C478.734 244.3 478.634 246.9 478.634 248.8C478.634 251.3 478.984 253.15 479.684 254.35C480.384 255.45 481.584 256 483.284 256C484.184 256 485.184 255.95 486.284 255.85C487.384 255.75 487.934 255.7 487.934 255.7L488.234 256.3L486.884 265.45C486.884 265.45 486.284 265.4 485.084 265.3C483.984 265.3 482.584 265.25 480.884 265.15C479.184 265.15 477.434 265.1 475.634 265C473.834 265 472.184 265 470.684 265C469.184 265 467.484 265.05 465.584 265.15C463.784 265.35 461.984 265.5 460.184 265.6C458.384 265.7 456.884 265.8 455.684 265.9C454.584 266.1 454.034 266.2 454.034 266.2L454.784 256.9ZM65.85 419.8C56.95 419.8 51.95 416.2 50.85 409L49.95 408.7C45.15 412.1 41.25 414.7 38.25 416.5C35.35 418.3 33.4 419.2 32.4 419.2C26.6 419.2 21.55 417.9 17.25 415.3C13.05 412.6 9.75 408.8 7.35 403.9C5.05 398.9 3.9 393.05 3.9 386.35C3.9 378.85 5.5 372.2 8.7 366.4C12 360.5 16.5 355.85 22.2 352.45C27.9 349.05 34.4 347.35 41.7 347.35C43 347.35 44.25 347.4 45.45 347.5C46.75 347.5 48.1 347.6 49.5 347.8V328.45C49.5 325.35 49 323.2 48 322C47.1 320.7 45.5 320.05 43.2 320.05C42.5 320.05 41.7 320.15 40.8 320.35C40 320.45 39.6 320.5 39.6 320.5L40.5 311.65C44 311.25 47.5 310.75 51 310.15C54.5 309.55 57.65 309 60.45 308.5C63.35 307.9 65.65 307.45 67.35 307.15C69.15 306.85 70.05 306.7 70.05 306.7L71.4 309.25C70.9 310.05 70.4 312.2 69.9 315.7C69.4 319.2 68.95 323.8 68.55 329.5C68.25 335.1 67.95 341.55 67.65 348.85C67.35 356.15 67.1 364 66.9 372.4C66.8 380.7 66.75 389.35 66.75 398.35C66.75 400.25 67.15 401.75 67.95 402.85C68.85 403.95 70.05 404.5 71.55 404.5C72.75 404.5 73.85 404.3 74.85 403.9C75.95 403.4 76.8 402.95 77.4 402.55C78.1 402.15 78.45 401.95 78.45 401.95L80.85 405.1C80.85 405.1 80.45 405.7 79.65 406.9C78.85 408.1 77.75 409.6 76.35 411.4C75.05 413.1 73.5 414.75 71.7 416.35C69.9 417.95 67.95 419.1 65.85 419.8ZM37.95 405.4C39.35 405.4 40.7 405.15 42 404.65C43.4 404.05 44.65 403.45 45.75 402.85C46.85 402.15 47.75 401.55 48.45 401.05C49.15 400.55 49.5 400.3 49.5 400.3V362.35C49.5 362.35 48.45 361.95 46.35 361.15C44.35 360.25 41.7 359.8 38.4 359.8C33.5 359.8 29.7 361.65 27 365.35C24.3 368.95 22.95 374.1 22.95 380.8C22.95 385.8 23.55 390.15 24.75 393.85C26.05 397.45 27.8 400.3 30 402.4C32.3 404.4 34.95 405.4 37.95 405.4ZM91.8164 367.45C91.8164 364.95 91.4164 363.1 90.6164 361.9C89.8164 360.7 88.5164 360.1 86.7164 360.1C85.8164 360.1 84.9664 360.2 84.1664 360.4C83.3664 360.5 82.9664 360.55 82.9664 360.55L83.8664 351.85C86.9664 351.45 90.0664 351 93.1664 350.5C96.3664 349.9 99.3164 349.35 102.016 348.85C104.716 348.25 106.866 347.8 108.466 347.5C110.166 347.2 111.016 347.05 111.016 347.05L112.366 349.45C111.766 350.75 111.216 352.85 110.716 355.75C110.316 358.65 109.916 362.1 109.516 366.1C109.116 370 108.816 374.2 108.616 378.7C108.416 383.1 108.316 387.55 108.316 392.05C108.316 400.15 111.466 404.2 117.766 404.2C120.066 404.2 122.316 403.6 124.516 402.4C126.816 401.1 128.916 399.8 130.816 398.5V367.6C130.816 364.7 130.366 362.8 129.466 361.9C128.666 360.9 126.966 360.35 124.366 360.25C123.966 360.25 123.416 360.3 122.716 360.4C122.116 360.4 121.766 360.4 121.666 360.4L122.866 351.85C126.166 351.45 129.416 351 132.616 350.5C135.916 349.9 138.916 349.4 141.616 349C144.316 348.5 146.516 348.1 148.216 347.8C149.916 347.5 150.766 347.35 150.766 347.35L152.116 349.75C151.416 351.25 150.766 354.45 150.166 359.35C149.566 364.15 149.066 369.95 148.666 376.75C148.266 383.55 148.066 390.75 148.066 398.35C148.066 400.25 148.516 401.75 149.416 402.85C150.416 403.95 151.766 404.5 153.466 404.5C154.666 404.5 155.816 404.3 156.916 403.9C158.016 403.4 158.916 402.95 159.616 402.55C160.316 402.15 160.666 401.95 160.666 401.95L162.916 404.95C162.916 404.95 162.466 405.65 161.566 407.05C160.666 408.35 159.416 409.95 157.816 411.85C156.316 413.65 154.666 415.35 152.866 416.95C151.066 418.45 149.266 419.4 147.466 419.8C138.266 419.8 133.166 415.95 132.166 408.25L130.966 407.65C127.066 411.25 123.566 414.15 120.466 416.35C117.466 418.55 115.366 419.65 114.166 419.65C106.566 419.65 100.766 418.05 96.7664 414.85C92.7664 411.65 90.7664 407 90.7664 400.9L91.8164 367.45ZM236.375 409.9C238.775 409.4 240.475 408.5 241.475 407.2C242.575 405.8 243.175 403.9 243.275 401.5L243.725 375.55C243.725 371.15 242.925 367.9 241.325 365.8C239.725 363.6 237.275 362.5 233.975 362.5C232.375 362.5 230.675 362.85 228.875 363.55C227.175 364.25 225.575 365.05 224.075 365.95C222.675 366.85 221.575 367.6 220.775 368.2C220.575 370.9 220.375 373.95 220.175 377.35C220.075 380.75 219.925 384.15 219.725 387.55C219.625 390.85 219.525 393.8 219.425 396.4C219.325 399 219.275 400.85 219.275 401.95C219.275 404.55 219.625 406.35 220.325 407.35C221.025 408.25 222.175 408.7 223.775 408.7C224.475 408.7 225.325 408.7 226.325 408.7C227.325 408.6 227.825 408.55 227.825 408.55L228.125 409.15L226.625 418.45C226.625 418.45 225.725 418.4 223.925 418.3C222.125 418.2 219.975 418.1 217.475 418C215.075 418 212.875 418 210.875 418C208.275 418 205.575 418 202.775 418C200.075 418.1 197.775 418.2 195.875 418.3C193.975 418.4 193.025 418.45 193.025 418.45L194.375 409.3C197.275 409 199.275 408.3 200.375 407.2C201.575 406 202.175 404 202.175 401.2V369.4C202.175 366 201.625 363.65 200.525 362.35C199.525 361.05 197.625 360.4 194.825 360.4H192.875L192.275 359.65L193.025 351.85C197.625 351.15 201.975 350.45 206.075 349.75C210.275 348.95 213.725 348.3 216.425 347.8C219.225 347.2 220.625 346.9 220.625 346.9L221.825 348.4C221.825 348.4 221.575 349.5 221.075 351.7C220.675 353.8 220.375 356.15 220.175 358.75L220.625 359.2C221.825 358.2 223.325 357.05 225.125 355.75C227.025 354.35 228.925 353 230.825 351.7C232.825 350.3 234.675 349.2 236.375 348.4C238.075 347.5 239.375 347.05 240.275 347.05C245.875 347.05 250.475 348.1 254.075 350.2C257.675 352.3 260.125 355.4 261.425 359.5C262.525 358.6 263.975 357.45 265.775 356.05C267.575 354.65 269.475 353.3 271.475 352C273.475 350.6 275.375 349.45 277.175 348.55C278.975 347.55 280.375 347.05 281.375 347.05C288.575 347.05 294.125 348.8 298.025 352.3C302.025 355.7 304.025 360.4 304.025 366.4C304.025 367.9 303.875 370.2 303.575 373.3C303.275 376.4 302.925 379.8 302.525 383.5C302.225 387.2 301.925 390.7 301.625 394C301.325 397.3 301.175 399.9 301.175 401.8C301.175 404.5 301.525 406.4 302.225 407.5C303.025 408.5 304.275 409 305.975 409C306.875 409 307.875 408.95 308.975 408.85C310.075 408.75 310.625 408.7 310.625 408.7L310.925 409.3L309.425 418.45C309.425 418.45 308.825 418.4 307.625 418.3C306.525 418.3 305.125 418.25 303.425 418.15C301.725 418.15 299.925 418.1 298.025 418C296.225 418 294.575 418 293.075 418C291.675 418 290.025 418.05 288.125 418.15C286.325 418.25 284.575 418.3 282.875 418.3C281.175 418.4 279.725 418.5 278.525 418.6C277.425 418.7 276.875 418.75 276.875 418.75L277.925 409.45C280.225 409.05 281.875 408.3 282.875 407.2C283.875 406 284.375 404.1 284.375 401.5L284.825 375.55C284.925 371.15 284.175 367.9 282.575 365.8C280.975 363.6 278.475 362.5 275.075 362.5C273.475 362.5 271.825 362.8 270.125 363.4C268.525 364 267.025 364.75 265.625 365.65C264.225 366.55 263.075 367.35 262.175 368.05L260.225 401.8C260.225 404.3 260.575 406.15 261.275 407.35C261.975 408.45 263.175 409 264.875 409C265.675 409 266.575 408.95 267.575 408.85C268.575 408.75 269.075 408.7 269.075 408.7L269.375 409.3L267.875 418.45C267.875 418.45 267.325 418.4 266.225 418.3C265.125 418.3 263.725 418.25 262.025 418.15C260.425 418.15 258.725 418.1 256.925 418C255.125 418 253.525 418 252.125 418C250.625 418 248.925 418.05 247.025 418.15C245.225 418.35 243.425 418.5 241.625 418.6C239.825 418.7 238.325 418.8 237.125 418.9C235.925 419.1 235.325 419.2 235.325 419.2L236.375 409.9ZM350.659 419.8C344.259 419.8 338.709 418.4 334.009 415.6C329.309 412.8 325.609 408.8 322.909 403.6C320.309 398.4 319.009 392.35 319.009 385.45C319.009 377.85 320.509 371.2 323.509 365.5C326.609 359.7 330.859 355.2 336.259 352C341.759 348.7 348.059 347.05 355.159 347.05C361.659 347.05 367.259 348.45 371.959 351.25C376.659 354.05 380.259 358 382.759 363.1C385.359 368.2 386.659 374.25 386.659 381.25C386.659 388.85 385.159 395.55 382.159 401.35C379.159 407.15 374.909 411.7 369.409 415C364.009 418.2 357.759 419.8 350.659 419.8ZM353.659 408.55C357.959 408.55 361.209 406.85 363.409 403.45C365.709 399.95 366.859 394.85 366.859 388.15C366.859 381.85 366.259 376.6 365.059 372.4C363.859 368.1 362.109 364.9 359.809 362.8C357.609 360.7 354.909 359.65 351.709 359.65C347.409 359.65 344.109 361.35 341.809 364.75C339.609 368.15 338.509 373.25 338.509 380.05C338.509 386.35 339.109 391.65 340.309 395.95C341.509 400.15 343.209 403.3 345.409 405.4C347.709 407.5 350.459 408.55 353.659 408.55ZM439.403 409.9C441.903 409.4 443.653 408.5 444.653 407.2C445.753 405.8 446.353 403.9 446.453 401.5L446.903 375.55C446.903 371.15 446.103 367.9 444.503 365.8C442.903 363.6 440.453 362.5 437.153 362.5C435.553 362.5 433.853 362.85 432.053 363.55C430.353 364.15 428.803 364.9 427.403 365.8C426.003 366.7 424.853 367.5 423.953 368.2C423.853 370.9 423.703 373.95 423.503 377.35C423.303 380.75 423.103 384.15 422.903 387.55C422.803 390.85 422.703 393.8 422.603 396.4C422.503 399 422.453 400.85 422.453 401.95C422.453 404.55 422.803 406.35 423.503 407.35C424.203 408.25 425.353 408.7 426.953 408.7C427.653 408.7 428.503 408.7 429.503 408.7C430.503 408.6 431.003 408.55 431.003 408.55L431.303 409.15L429.803 418.45C429.803 418.45 428.903 418.4 427.103 418.3C425.303 418.2 423.153 418.1 420.653 418C418.253 418 416.053 418 414.053 418C411.453 418 408.753 418.05 405.953 418.15C403.253 418.35 400.953 418.5 399.053 418.6C397.253 418.8 396.353 418.9 396.353 418.9L397.553 409.6C400.453 409.2 402.453 408.4 403.553 407.2C404.753 406 405.353 404 405.353 401.2V369.4C405.353 366 404.803 363.65 403.703 362.35C402.703 361.05 400.803 360.4 398.003 360.4H396.053L395.453 359.65L396.203 351.85C400.803 351.15 405.203 350.45 409.403 349.75C413.603 348.95 417.053 348.3 419.753 347.8C422.453 347.2 423.803 346.9 423.803 346.9L425.003 348.4C425.003 348.4 424.753 349.5 424.253 351.7C423.853 353.8 423.553 356.15 423.353 358.75L423.953 359.35C425.153 358.35 426.603 357.15 428.303 355.75C430.103 354.35 431.953 353 433.853 351.7C435.853 350.4 437.703 349.3 439.403 348.4C441.103 347.5 442.453 347.05 443.453 347.05C450.553 347.05 456.053 348.75 459.953 352.15C463.953 355.55 465.953 360.3 465.953 366.4C465.953 367.9 465.803 370.2 465.503 373.3C465.203 376.4 464.853 379.8 464.453 383.5C464.153 387.2 463.853 390.7 463.553 394C463.353 397.3 463.253 399.9 463.253 401.8C463.253 404.3 463.603 406.15 464.303 407.35C465.003 408.45 466.203 409 467.903 409C468.803 409 469.803 408.95 470.903 408.85C472.003 408.75 472.553 408.7 472.553 408.7L472.853 409.3L471.503 418.45C471.503 418.45 470.903 418.4 469.703 418.3C468.603 418.3 467.203 418.25 465.503 418.15C463.803 418.15 462.053 418.1 460.253 418C458.453 418 456.803 418 455.303 418C453.803 418 452.103 418.05 450.203 418.15C448.403 418.35 446.603 418.5 444.803 418.6C443.003 418.7 441.503 418.8 440.303 418.9C439.203 419.1 438.653 419.2 438.653 419.2L439.403 409.9ZM541.631 419.8C532.731 419.8 527.731 416.2 526.631 409L525.731 408.7C520.931 412.1 517.031 414.7 514.031 416.5C511.131 418.3 509.181 419.2 508.181 419.2C502.381 419.2 497.331 417.9 493.031 415.3C488.831 412.6 485.531 408.8 483.131 403.9C480.831 398.9 479.681 393.05 479.681 386.35C479.681 378.85 481.281 372.2 484.481 366.4C487.781 360.5 492.281 355.85 497.981 352.45C503.681 349.05 510.181 347.35 517.481 347.35C518.781 347.35 520.031 347.4 521.231 347.5C522.531 347.5 523.881 347.6 525.281 347.8V328.45C525.281 325.35 524.781 323.2 523.781 322C522.881 320.7 521.281 320.05 518.981 320.05C518.281 320.05 517.481 320.15 516.581 320.35C515.781 320.45 515.381 320.5 515.381 320.5L516.281 311.65C519.781 311.25 523.281 310.75 526.781 310.15C530.281 309.55 533.431 309 536.231 308.5C539.131 307.9 541.431 307.45 543.131 307.15C544.931 306.85 545.831 306.7 545.831 306.7L547.181 309.25C546.681 310.05 546.181 312.2 545.681 315.7C545.181 319.2 544.731 323.8 544.331 329.5C544.031 335.1 543.731 341.55 543.431 348.85C543.131 356.15 542.881 364 542.681 372.4C542.581 380.7 542.531 389.35 542.531 398.35C542.531 400.25 542.931 401.75 543.731 402.85C544.631 403.95 545.831 404.5 547.331 404.5C548.531 404.5 549.631 404.3 550.631 403.9C551.731 403.4 552.581 402.95 553.181 402.55C553.881 402.15 554.231 401.95 554.231 401.95L556.631 405.1C556.631 405.1 556.231 405.7 555.431 406.9C554.631 408.1 553.531 409.6 552.131 411.4C550.831 413.1 549.281 414.75 547.481 416.35C545.681 417.95 543.731 419.1 541.631 419.8ZM513.731 405.4C515.131 405.4 516.481 405.15 517.781 404.65C519.181 404.05 520.431 403.45 521.531 402.85C522.631 402.15 523.531 401.55 524.231 401.05C524.931 400.55 525.281 400.3 525.281 400.3V362.35C525.281 362.35 524.231 361.95 522.131 361.15C520.131 360.25 517.481 359.8 514.181 359.8C509.281 359.8 505.481 361.65 502.781 365.35C500.081 368.95 498.731 374.1 498.731 380.8C498.731 385.8 499.331 390.15 500.531 393.85C501.831 397.45 503.581 400.3 505.781 402.4C508.081 404.4 510.731 405.4 513.731 405.4ZM594.148 419.8C587.148 419.8 581.098 418.4 575.998 415.6C570.998 412.8 567.098 408.8 564.298 403.6C561.598 398.4 560.248 392.3 560.248 385.3C560.248 379.8 561.148 374.75 562.948 370.15C564.748 365.55 567.248 361.55 570.448 358.15C573.648 354.65 577.398 351.95 581.698 350.05C585.998 348.05 590.648 347.05 595.648 347.05C612.448 347.05 620.848 355.55 620.848 372.55C620.848 374.05 620.698 375.6 620.398 377.2C620.198 378.8 619.998 380.05 619.798 380.95L617.998 382.75H579.148C579.348 389.65 580.948 395.05 583.948 398.95C587.048 402.75 591.348 404.85 596.848 405.25C602.348 405.65 608.798 404.15 616.198 400.75L617.248 401.35L619.648 408.7C617.648 410.2 615.148 411.85 612.148 413.65C609.148 415.35 606.048 416.8 602.848 418C599.648 419.2 596.748 419.8 594.148 419.8ZM579.148 374.5L599.698 373.3C600.898 373.2 601.648 372.95 601.948 372.55C602.348 372.05 602.548 371.15 602.548 369.85C602.548 366.25 601.748 363.5 600.148 361.6C598.548 359.7 596.198 358.75 593.098 358.75C589.198 358.75 585.998 360.1 583.498 362.8C581.098 365.4 579.648 369.3 579.148 374.5ZM668.879 419.65C665.279 419.65 662.529 418.6 660.629 416.5C658.829 414.4 657.929 411.75 657.929 408.55C657.929 404.95 658.979 402.05 661.079 399.85C663.279 397.55 666.229 396.4 669.929 396.4C673.429 396.4 676.129 397.45 678.029 399.55C679.929 401.55 680.879 404.2 680.879 407.5C680.879 411 679.779 413.9 677.579 416.2C675.479 418.5 672.579 419.65 668.879 419.65Z" fill="black"/>
</svg>
